<?xml version="1.0" encoding="UTF-8" standalone="no"?>
<svg
   id="Layer_1"
   version="1.1"
   viewBox="0 0 400 200"
   sodipodi:docname="approx8.svg"
   width="400"
   height="200"
   inkscape:version="1.4 (e7c3feb1, 2024-10-09)"
   xmlns:inkscape="http://www.inkscape.org/namespaces/inkscape"
   xmlns:sodipodi="http://sodipodi.sourceforge.net/DTD/sodipodi-0.dtd"
   xmlns="http://www.w3.org/2000/svg"
   xmlns:svg="http://www.w3.org/2000/svg">
  <!-- Generator: Adobe Illustrator 30.1.0, SVG Export Plug-In . SVG Version: 2.1.1 Build 136)  -->
  <defs
     id="defs1">
    <style
       id="style1">
      .st0, .st1, .st2 {
        fill: none;
        stroke: red;
      }

      .st1 {
        stroke-width: .82px;
      }

      .st1, .st2 {
        stroke-linecap: round;
      }

      .st3 {
        font-family: MyriadPro-Regular, 'Myriad Pro';
        font-size: 22px;
      }

      .st4 {
        fill: red;
      }
    </style>
  </defs>
  <sodipodi:namedview
     id="namedview441"
     bordercolor="#000000"
     borderopacity="0.25"
     inkscape:current-layer="Layer_1"
     inkscape:cx="391.88539"
     inkscape:cy="117.26873"
     inkscape:deskcolor="#d1d1d1"
     inkscape:pagecheckerboard="0"
     inkscape:pageopacity="0.0"
     inkscape:showpageshadow="2"
     inkscape:window-height="775"
     inkscape:window-maximized="0"
     inkscape:window-width="1376"
     inkscape:window-x="0"
     inkscape:window-y="34"
     inkscape:zoom="1.3473327"
     pagecolor="#ffffff" />
  <g
     id="g3">
    <path
       id="path1"
       d="m 10.38,108.04 v -2.73 H 5.47 v -1.38 l 5.12,-7.11 h 1.19 v 7.26 h 1.65 v 1.23 h -1.65 v 2.73 c 0,0 -1.4,0 -1.4,0 z m -0.03,-3.96 V 99 l -3.59,5.08 z" />
    <path
       id="path2"
       d="m 15.38,101.13 h 1.77 v 5.33 h 6.64 v -5.33 h 1.77 v 12.91 H 23.79 V 108 h -6.64 v 6.04 h -1.77 c 0,0 0,-12.91 0,-12.91 z" />
    <path
       id="path3"
       d="m 33.94,104.89 c 0.62,0.31 1.1,0.72 1.42,1.22 0.31,0.47 0.52,1.03 0.63,1.66 0.09,0.43 0.14,1.12 0.14,2.07 h -6.85 c 0.03,0.96 0.25,1.73 0.67,2.3 0.42,0.58 1.07,0.87 1.94,0.87 0.82,0 1.47,-0.27 1.96,-0.82 0.27,-0.32 0.47,-0.69 0.58,-1.1 H 36 c -0.04,0.35 -0.18,0.73 -0.41,1.16 -0.23,0.43 -0.49,0.77 -0.77,1.04 -0.48,0.47 -1.07,0.79 -1.77,0.95 -0.38,0.09 -0.81,0.14 -1.28,0.14 -1.16,0 -2.15,-0.43 -2.96,-1.28 -0.81,-0.85 -1.21,-2.05 -1.21,-3.58 0,-1.53 0.41,-2.74 1.22,-3.68 0.81,-0.94 1.88,-1.42 3.2,-1.42 0.65,0 1.29,0.16 1.92,0.47 z m 0.56,3.69 c -0.06,-0.69 -0.21,-1.23 -0.44,-1.64 -0.43,-0.76 -1.15,-1.14 -2.15,-1.14 -0.72,0 -1.32,0.26 -1.81,0.79 -0.49,0.52 -0.75,1.19 -0.78,2 h 5.18 z" />
  </g>
  <g
     id="g6">
    <path
       id="path4"
       d="m 6.34,148.22 c -0.6,-0.73 -0.89,-1.61 -0.89,-2.65 h 1.47 c 0.06,0.72 0.2,1.25 0.41,1.58 0.36,0.59 1.02,0.88 1.98,0.88 0.74,0 1.33,-0.2 1.78,-0.59 0.45,-0.4 0.67,-0.91 0.67,-1.53 0,-0.77 -0.24,-1.31 -0.71,-1.62 -0.47,-0.31 -1.13,-0.46 -1.96,-0.46 H 8.8 c -0.1,0 -0.19,0 -0.29,0 v -1.24 c 0.15,0.02 0.27,0.03 0.37,0.03 0.1,0 0.21,0 0.32,0 0.53,0 0.96,-0.08 1.3,-0.25 0.59,-0.29 0.89,-0.81 0.89,-1.56 0,-0.56 -0.2,-0.99 -0.59,-1.29 -0.4,-0.3 -0.86,-0.45 -1.38,-0.45 -0.94,0 -1.59,0.31 -1.95,0.94 -0.2,0.34 -0.31,0.83 -0.34,1.47 h -1.4 c 0,-0.83 0.17,-1.54 0.5,-2.12 0.57,-1.04 1.58,-1.56 3.02,-1.56 1.14,0 2.02,0.25 2.65,0.76 0.63,0.51 0.94,1.24 0.94,2.21 0,0.69 -0.19,1.25 -0.55,1.67 -0.23,0.27 -0.53,0.47 -0.89,0.62 0.59,0.16 1.05,0.47 1.38,0.93 0.33,0.46 0.5,1.03 0.5,1.69 0,1.07 -0.35,1.94 -1.05,2.61 -0.7,0.67 -1.7,1.01 -2.99,1.01 -1.34,-0.01 -2.3,-0.37 -2.9,-1.1 z" />
    <path
       id="path5"
       d="m 15.38,142.1 h 1.77 v 5.33 h 6.64 v -5.33 h 1.77 v 12.91 h -1.77 v -6.04 h -6.64 v 6.04 h -1.77 c 0,0 0,-12.91 0,-12.91 z" />
    <path
       id="path6"
       d="m 33.94,145.85 c 0.62,0.31 1.1,0.72 1.42,1.22 0.31,0.47 0.52,1.03 0.63,1.66 0.09,0.43 0.14,1.12 0.14,2.07 h -6.85 c 0.03,0.96 0.25,1.73 0.67,2.3 0.42,0.58 1.07,0.87 1.94,0.87 0.82,0 1.47,-0.27 1.96,-0.82 0.27,-0.32 0.47,-0.69 0.58,-1.1 H 36 c -0.04,0.35 -0.18,0.73 -0.41,1.16 -0.23,0.43 -0.49,0.77 -0.77,1.04 -0.48,0.47 -1.07,0.79 -1.77,0.95 -0.38,0.09 -0.81,0.14 -1.28,0.14 -1.16,0 -2.15,-0.43 -2.96,-1.28 -0.81,-0.85 -1.21,-2.05 -1.21,-3.58 0,-1.53 0.41,-2.74 1.22,-3.68 0.81,-0.94 1.88,-1.42 3.2,-1.42 0.65,0 1.29,0.16 1.92,0.47 z m 0.56,3.7 c -0.06,-0.69 -0.21,-1.23 -0.44,-1.64 -0.43,-0.76 -1.15,-1.14 -2.15,-1.14 -0.72,0 -1.32,0.26 -1.81,0.79 -0.49,0.52 -0.75,1.19 -0.78,2 h 5.18 z" />
  </g>
  <g
     id="g9">
    <path
       id="path7"
       d="m 110.78,144.1 v -1.08 c 1.02,-0.1 1.72,-0.26 2.12,-0.5 0.4,-0.23 0.7,-0.78 0.9,-1.64 h 1.11 v 11.14 h -1.5 v -7.92 z" />
    <path
       id="path8"
       d="m 123.46,152.02 v -2.73 h -4.91 v -1.38 l 5.12,-7.11 h 1.19 v 7.26 h 1.65 v 1.23 h -1.65 v 2.73 z m -0.02,-3.96 v -5.08 l -3.59,5.08 z" />
    <path
       id="path9"
       d="m 128.42,145.11 h 2.06 l 6.44,10.43 v -10.43 h 1.67 v 12.91 h -1.96 L 130.1,147.6 v 10.42 h -1.67 v -12.91 0 z" />
  </g>
  <g
     id="g11">
    <path
       id="path10"
       d="m 6.59,177.43 v -1.08 c 1.02,-0.1 1.72,-0.26 2.12,-0.5 0.4,-0.23 0.7,-0.78 0.9,-1.64 h 1.11 v 11.14 h -1.5 v -7.92 z" />
    <path
       id="path11"
       d="m 15.38,178.44 h 1.77 v 5.33 h 6.64 v -5.33 h 1.77 v 12.91 h -1.77 v -6.04 h -6.64 v 6.04 h -1.77 c 0,0 0,-12.91 0,-12.91 z" />
  </g>
  <g
     id="g15">
    <g
       id="g14">
      <path
         id="path12"
         d="m 69.23,100.12 v -1.08 c 1.02,-0.1 1.72,-0.26 2.12,-0.5 0.4,-0.23 0.7,-0.78 0.9,-1.64 h 1.11 v 11.14 h -1.5 v -7.92 z" />
      <path
         id="path13"
         d="m 77.7,105.53 c 0.35,-0.71 1.02,-1.36 2.03,-1.95 l 1.5,-0.87 c 0.67,-0.39 1.14,-0.72 1.41,-1 0.43,-0.43 0.64,-0.93 0.64,-1.49 0,-0.65 -0.2,-1.17 -0.59,-1.55 -0.39,-0.38 -0.91,-0.58 -1.56,-0.58 -0.96,0 -1.63,0.37 -2,1.1 -0.2,0.39 -0.31,0.94 -0.33,1.63 h -1.43 c 0.02,-0.97 0.2,-1.77 0.54,-2.38 0.61,-1.08 1.68,-1.62 3.23,-1.62 1.28,0 2.22,0.35 2.81,1.04 0.59,0.69 0.89,1.46 0.89,2.31 0,0.9 -0.32,1.66 -0.95,2.3 -0.36,0.37 -1.02,0.82 -1.96,1.34 l -1.07,0.59 c -0.51,0.28 -0.91,0.55 -1.2,0.8 -0.52,0.45 -0.85,0.96 -0.98,1.51 h 6.11 v 1.33 H 77.1 c 0.05,-0.96 0.25,-1.8 0.6,-2.51 z" />
      <path
         id="path14"
         d="m 96,102.07 c 0.89,0.86 1.39,1.84 1.49,2.94 h -1.71 c -0.19,-0.83 -0.57,-1.49 -1.14,-1.98 -0.57,-0.49 -1.36,-0.73 -2.39,-0.73 -1.25,0 -2.26,0.45 -3.03,1.34 -0.77,0.89 -1.15,2.26 -1.15,4.11 0,1.51 0.35,2.74 1.04,3.68 0.69,0.94 1.73,1.41 3.1,1.41 1.27,0 2.23,-0.5 2.89,-1.49 0.35,-0.52 0.61,-1.21 0.79,-2.06 h 1.71 c -0.15,1.36 -0.65,2.5 -1.49,3.42 -1.01,1.11 -2.38,1.66 -4.1,1.66 -1.48,0 -2.73,-0.45 -3.74,-1.36 -1.33,-1.2 -1.99,-3.06 -1.99,-5.57 0,-1.91 0.5,-3.47 1.49,-4.69 1.08,-1.33 2.56,-1.99 4.46,-1.99 1.63,0.02 2.88,0.45 3.77,1.31 z" />
    </g>
  </g>
  <g
     id="g18">
    <g
       id="g17">
      <path
         id="path15"
         d="m 130.89,100.12 v -1.08 c 1.02,-0.1 1.72,-0.26 2.12,-0.5 0.4,-0.23 0.7,-0.78 0.9,-1.64 h 1.11 v 11.14 h -1.5 v -7.92 z" />
      <path
         id="path16"
         d="m 145.55,97.78 c 0.49,0.65 0.74,1.32 0.74,2 h -1.39 c -0.08,-0.44 -0.22,-0.79 -0.4,-1.04 -0.34,-0.47 -0.85,-0.7 -1.54,-0.7 -0.79,0 -1.41,0.36 -1.88,1.09 -0.46,0.73 -0.72,1.77 -0.77,3.12 0.32,-0.47 0.73,-0.83 1.22,-1.06 0.45,-0.21 0.95,-0.31 1.5,-0.31 0.94,0 1.75,0.3 2.45,0.9 0.7,0.6 1.05,1.49 1.05,2.68 0,1.02 -0.33,1.92 -0.99,2.7 -0.66,0.78 -1.6,1.18 -2.83,1.18 -1.05,0 -1.95,-0.4 -2.71,-1.19 -0.76,-0.79 -1.14,-2.13 -1.14,-4.01 0,-1.39 0.17,-2.57 0.51,-3.54 0.65,-1.85 1.84,-2.78 3.57,-2.78 1.24,-0.01 2.11,0.31 2.61,0.96 z m -1.06,8.55 c 0.37,-0.5 0.55,-1.08 0.55,-1.76 0,-0.57 -0.16,-1.12 -0.49,-1.64 -0.33,-0.52 -0.92,-0.78 -1.79,-0.78 -0.6,0 -1.13,0.2 -1.59,0.6 -0.46,0.4 -0.68,1.01 -0.68,1.81 0,0.71 0.21,1.3 0.62,1.79 0.41,0.48 0.99,0.72 1.72,0.72 0.74,0.01 1.29,-0.24 1.66,-0.74 z" />
      <path
         id="path17"
         d="m 159.16,102.98 c 0.86,1.14 1.28,2.6 1.28,4.39 0,1.93 -0.49,3.53 -1.47,4.81 -1.15,1.5 -2.79,2.25 -4.91,2.25 -1.99,0 -3.55,-0.66 -4.68,-1.97 -1.01,-1.27 -1.52,-2.87 -1.52,-4.8 0,-1.75 0.43,-3.24 1.3,-4.48 1.11,-1.59 2.76,-2.39 4.94,-2.39 2.27,0 3.96,0.72 5.06,2.19 z m -1.55,8.23 c 0.69,-1.11 1.03,-2.38 1.03,-3.81 0,-1.52 -0.4,-2.74 -1.19,-3.67 -0.79,-0.93 -1.88,-1.39 -3.26,-1.39 -1.38,0 -2.43,0.46 -3.27,1.38 -0.84,0.92 -1.27,2.27 -1.27,4.06 0,1.43 0.36,2.64 1.09,3.62 0.72,0.98 1.9,1.47 3.52,1.47 1.55,-0.01 2.67,-0.56 3.35,-1.66 z" />
    </g>
  </g>
  <g
     id="g51">
    <g
       id="g50">
      <path
         id="path47"
         d="m 188.61,105.53 c 0.35,-0.71 1.02,-1.36 2.03,-1.95 l 1.5,-0.87 c 0.67,-0.39 1.14,-0.72 1.41,-1 0.43,-0.43 0.64,-0.93 0.64,-1.49 0,-0.65 -0.2,-1.17 -0.59,-1.55 -0.39,-0.38 -0.91,-0.58 -1.56,-0.58 -0.96,0 -1.63,0.37 -2,1.1 -0.2,0.39 -0.31,0.94 -0.33,1.63 h -1.43 c 0.02,-0.97 0.2,-1.77 0.54,-2.38 0.61,-1.08 1.68,-1.62 3.23,-1.62 1.28,0 2.22,0.35 2.81,1.04 0.59,0.69 0.89,1.46 0.89,2.31 0,0.9 -0.32,1.66 -0.95,2.3 -0.36,0.37 -1.02,0.82 -1.96,1.34 l -1.07,0.59 c -0.51,0.28 -0.91,0.55 -1.2,0.8 -0.52,0.45 -0.85,0.96 -0.98,1.51 h 6.11 v 1.33 h -7.68 c 0.04,-0.96 0.24,-1.8 0.59,-2.51 z" />
      <path
         id="path48"
         d="m 203.88,98.64 c 0.5,0.92 0.75,2.19 0.75,3.79 0,1.6 -0.23,2.78 -0.68,3.77 -0.66,1.43 -1.73,2.14 -3.22,2.14 -1.34,0 -2.34,-0.58 -3,-1.75 -0.55,-0.97 -0.82,-2.28 -0.82,-3.92 0,-1.27 0.16,-2.36 0.49,-3.27 0.61,-1.7 1.73,-2.55 3.34,-2.55 1.44,0.01 2.49,0.6 3.14,1.79 z m -1.42,7.46 c 0.43,-0.65 0.65,-1.85 0.65,-3.61 0,-1.27 -0.16,-2.32 -0.47,-3.14 -0.31,-0.82 -0.92,-1.23 -1.82,-1.23 -0.83,0 -1.44,0.39 -1.82,1.17 -0.38,0.78 -0.58,1.93 -0.58,3.44 0,1.14 0.12,2.06 0.37,2.75 0.38,1.06 1.02,1.59 1.93,1.59 0.73,0 1.31,-0.33 1.74,-0.97 z" />
      <path
         id="path49"
         d="m 206.68,101.13 h 2.06 l 6.44,10.43 v -10.43 h 1.67 v 12.91 h -1.96 l -6.53,-10.42 v 10.42 h -1.67 v -12.91 0 z" />
      <path
         id="path50"
         d="m 225.28,104.89 c 0.62,0.31 1.1,0.72 1.42,1.22 0.31,0.47 0.52,1.03 0.63,1.66 0.09,0.43 0.14,1.12 0.14,2.07 h -6.85 c 0.03,0.96 0.25,1.73 0.67,2.3 0.42,0.58 1.07,0.87 1.94,0.87 0.82,0 1.47,-0.27 1.96,-0.82 0.27,-0.32 0.47,-0.69 0.58,-1.1 h 1.56 c -0.04,0.35 -0.18,0.73 -0.41,1.16 -0.23,0.43 -0.49,0.77 -0.77,1.04 -0.48,0.47 -1.07,0.79 -1.77,0.95 -0.38,0.09 -0.81,0.14 -1.28,0.14 -1.16,0 -2.15,-0.43 -2.96,-1.28 -0.81,-0.85 -1.21,-2.05 -1.21,-3.58 0,-1.53 0.41,-2.74 1.22,-3.68 0.81,-0.94 1.88,-1.42 3.2,-1.42 0.66,0 1.31,0.16 1.93,0.47 z m 0.57,3.69 c -0.06,-0.69 -0.21,-1.23 -0.44,-1.64 -0.43,-0.76 -1.15,-1.14 -2.15,-1.14 -0.72,0 -1.32,0.26 -1.81,0.79 -0.49,0.52 -0.75,1.19 -0.78,2 h 5.18 z" />
    </g>
  </g>
  <g
     id="g55">
    <g
       id="g54">
      <path
         id="path51"
         d="m 248.75,105.53 c 0.35,-0.71 1.02,-1.36 2.03,-1.95 l 1.5,-0.87 c 0.67,-0.39 1.14,-0.72 1.41,-1 0.43,-0.43 0.64,-0.93 0.64,-1.49 0,-0.65 -0.2,-1.17 -0.59,-1.55 -0.39,-0.38 -0.91,-0.58 -1.56,-0.58 -0.96,0 -1.63,0.37 -2,1.1 -0.2,0.39 -0.31,0.94 -0.33,1.63 h -1.43 c 0.02,-0.97 0.2,-1.77 0.54,-2.38 0.61,-1.08 1.68,-1.62 3.23,-1.62 1.28,0 2.22,0.35 2.81,1.04 0.59,0.69 0.89,1.46 0.89,2.31 0,0.9 -0.32,1.66 -0.95,2.3 -0.36,0.37 -1.02,0.82 -1.96,1.34 l -1.07,0.59 c -0.51,0.28 -0.91,0.55 -1.2,0.8 -0.52,0.45 -0.85,0.96 -0.98,1.51 h 6.11 v 1.33 h -7.68 c 0.04,-0.96 0.24,-1.8 0.59,-2.51 z" />
      <path
         id="path52"
         d="m 261.86,108.04 v -2.73 h -4.91 v -1.38 l 5.12,-7.11 h 1.19 v 7.26 h 1.65 v 1.23 h -1.65 v 2.73 c 0,0 -1.4,0 -1.4,0 z m -0.02,-3.96 V 99 l -3.59,5.08 z" />
      <path
         id="path53"
         d="m 266.77,101.13 h 2.51 l 3.71,10.92 3.69,-10.92 h 2.49 v 12.91 h -1.67 v -7.62 c 0,-0.26 0.01,-0.7 0.02,-1.31 0.01,-0.61 0.02,-1.26 0.02,-1.96 l -3.69,10.89 h -1.73 l -3.72,-10.89 v 0.4 c 0,0.32 0.01,0.8 0.03,1.45 0.02,0.65 0.03,1.12 0.03,1.43 v 7.62 h -1.67 v -12.92 z" />
      <path
         id="path54"
         d="m 286.83,105.01 c 0.3,0.21 0.6,0.5 0.91,0.9 v -1.19 h 1.46 v 8.56 c 0,1.2 -0.18,2.14 -0.53,2.83 -0.65,1.28 -1.89,1.92 -3.71,1.92 -1.01,0 -1.86,-0.23 -2.55,-0.68 -0.69,-0.45 -1.07,-1.17 -1.16,-2.13 h 1.61 c 0.08,0.42 0.23,0.75 0.45,0.98 0.36,0.35 0.92,0.53 1.68,0.53 1.21,0 2,-0.43 2.37,-1.28 0.22,-0.5 0.32,-1.4 0.31,-2.7 -0.31,0.48 -0.69,0.84 -1.14,1.07 -0.44,0.23 -1.03,0.35 -1.76,0.35 -1.02,0 -1.9,-0.36 -2.67,-1.08 -0.77,-0.72 -1.14,-1.92 -1.14,-3.59 0,-1.58 0.38,-2.81 1.15,-3.69 0.77,-0.88 1.69,-1.33 2.78,-1.33 0.75,-0.02 1.39,0.16 1.94,0.53 z m 0.2,1.69 c -0.48,-0.56 -1.09,-0.84 -1.83,-0.84 -1.11,0 -1.87,0.52 -2.27,1.56 -0.22,0.56 -0.32,1.29 -0.32,2.19 0,1.06 0.21,1.87 0.64,2.42 0.43,0.55 1,0.83 1.73,0.83 1.13,0 1.93,-0.51 2.39,-1.54 0.26,-0.58 0.38,-1.26 0.38,-2.03 -0.01,-1.16 -0.25,-2.02 -0.72,-2.59 z" />
    </g>
  </g>
  <g
     id="g106">
    <g
       id="g105">
      <line
         id="line102"
         class="st0"
         x1="48.759998"
         y1="111.07"
         x2="58"
         y2="111.07" />
      <g
         id="g103">
        <polygon
           id="polygon102"
           class="st4"
           points="49.91,112.76 43.62,111.07 49.91,109.39 " />
      </g>
      <g
         id="g104">
        <polygon
           id="polygon103"
           class="st4"
           points="56.85,112.76 63.14,111.07 56.85,109.39 " />
      </g>
    </g>
  </g>
  <g
     id="g110">
    <g
       id="g109">
      <line
         id="line106"
         class="st0"
         x1="19.559999"
         y1="171.94"
         x2="19.559999"
         y2="162.7" />
      <g
         id="g107">
        <polygon
           id="polygon106"
           class="st4"
           points="21.24,170.79 19.56,177.08 17.87,170.79 " />
      </g>
      <g
         id="g108">
        <polygon
           id="polygon107"
           class="st4"
           points="21.24,163.85 19.56,157.56 17.87,163.85 " />
      </g>
    </g>
  </g>
  <g
     id="g114">
    <g
       id="g113">
      <line
         id="line110"
         class="st0"
         x1="19.559999"
         y1="134.81"
         x2="19.559999"
         y2="125.56" />
      <g
         id="g111">
        <polygon
           id="polygon110"
           class="st4"
           points="21.24,133.66 19.56,139.95 17.87,133.66 " />
      </g>
      <g
         id="g112">
        <polygon
           id="polygon111"
           class="st4"
           points="21.24,126.71 19.56,120.42 17.87,126.71 " />
      </g>
    </g>
  </g>
  <g
     id="g118">
    <g
       id="g117">
      <line
         id="line114"
         class="st0"
         x1="110.66"
         y1="111.07"
         x2="119.9"
         y2="111.07" />
      <g
         id="g115">
        <polygon
           id="polygon114"
           class="st4"
           points="111.81,112.76 105.52,111.07 111.81,109.39 " />
      </g>
      <g
         id="g116">
        <polygon
           id="polygon115"
           class="st4"
           points="118.75,112.76 125.04,111.07 118.75,109.39 " />
      </g>
    </g>
  </g>
  <g
     id="g122">
    <g
       id="g121">
      <line
         id="line118"
         class="st0"
         x1="133.59"
         y1="131.2"
         x2="140.12"
         y2="124.67" />
      <g
         id="g119">
        <polygon
           id="polygon118"
           class="st4"
           points="135.59,131.58 129.95,134.84 133.21,129.2 " />
      </g>
      <g
         id="g120">
        <polygon
           id="polygon119"
           class="st4"
           points="140.5,126.67 143.76,121.03 138.12,124.29 " />
      </g>
    </g>
  </g>
  <g
     id="g126">
    <g
       id="g125">
      <line
         id="line122"
         class="st0"
         x1="98.059998"
         y1="124.67"
         x2="104.6"
         y2="131.2" />
      <g
         id="g123">
        <polygon
           id="polygon122"
           class="st4"
           points="97.68,126.67 94.43,121.03 100.06,124.29 " />
      </g>
      <g
         id="g124">
        <polygon
           id="polygon123"
           class="st4"
           points="102.59,131.58 108.23,134.84 104.98,129.2 " />
      </g>
    </g>
  </g>
  <g
     id="g130">
    <g
       id="g129">
      <line
         id="line126"
         class="st0"
         x1="49.52"
         y1="126.43"
         x2="97.059998"
         y2="146.14999" />
      <g
         id="g127">
        <polygon
           id="polygon126"
           class="st4"
           points="49.94,128.43 44.78,124.46 51.23,125.32 " />
      </g>
      <g
         id="g128">
        <polygon
           id="polygon127"
           class="st4"
           points="95.35,147.26 101.81,148.12 96.64,144.15 " />
      </g>
    </g>
  </g>
  <g
     id="g134">
    <g
       id="g133">
      <line
         id="line130"
         class="st0"
         x1="49.150002"
         y1="176.71001"
         x2="97.059998"
         y2="157.92999" />
      <g
         id="g131">
        <polygon
           id="polygon130"
           class="st4"
           points="50.83,177.86 44.37,178.59 49.6,174.73 " />
      </g>
      <g
         id="g132">
        <polygon
           id="polygon131"
           class="st4"
           points="96.6,159.92 101.84,156.05 95.37,156.78 " />
      </g>
    </g>
  </g>
  <g
     id="g138">
    <g
       id="g137">
      <line
         id="line134"
         class="st0"
         x1="170.31"
         y1="111.07"
         x2="179.55"
         y2="111.07" />
      <g
         id="g135">
        <polygon
           id="polygon134"
           class="st4"
           points="171.46,112.76 165.17,111.07 171.46,109.39 " />
      </g>
      <g
         id="g136">
        <polygon
           id="polygon135"
           class="st4"
           points="178.4,112.76 184.69,111.07 178.4,109.39 " />
      </g>
    </g>
  </g>
  <g
     id="g142">
    <g
       id="g141">
      <line
         id="line138"
         class="st0"
         x1="236.96001"
         y1="111.07"
         x2="246.2"
         y2="111.07" />
      <g
         id="g139">
        <polygon
           id="polygon138"
           class="st4"
           points="238.1,112.76 231.82,111.07 238.1,109.39 " />
      </g>
      <g
         id="g140">
        <polygon
           id="polygon139"
           class="st4"
           points="245.05,112.76 251.34,111.07 245.05,109.39 " />
      </g>
    </g>
  </g>
  <g
     id="g193">
    <path
       id="path189"
       d="m 104.32,81.37 c -0.72,1.39 -1.18,2.41 -1.39,3.07 -0.32,1 -0.49,2.15 -0.49,3.46 0,1.31 0.18,2.53 0.55,3.62 0.23,0.67 0.68,1.65 1.35,2.91 h -0.83 c -0.67,-1.04 -1.08,-1.7 -1.24,-1.99 -0.16,-0.29 -0.33,-0.68 -0.52,-1.17 -0.26,-0.67 -0.43,-1.39 -0.53,-2.16 -0.05,-0.4 -0.08,-0.77 -0.08,-1.13 0,-1.35 0.21,-2.55 0.64,-3.6 0.27,-0.67 0.83,-1.67 1.68,-3.01 0,0 0.86,0 0.86,0 z" />
    <path
       id="path190"
       d="m 112.65,85.29 -0.53,2.09 c -0.1,0.37 -0.21,0.72 -0.33,1.07 -0.12,0.35 -0.26,0.68 -0.4,0.99 0.15,0.41 0.32,0.71 0.5,0.91 0.18,0.2 0.37,0.3 0.57,0.3 0.15,0 0.28,-0.06 0.38,-0.17 0.1,-0.11 0.17,-0.27 0.19,-0.47 h 0.27 v 0.15 c 0,0.52 -0.07,0.91 -0.22,1.16 -0.15,0.25 -0.37,0.38 -0.66,0.38 -0.31,0 -0.56,-0.12 -0.75,-0.37 -0.19,-0.25 -0.36,-0.71 -0.53,-1.41 -0.37,0.62 -0.77,1.08 -1.2,1.36 -0.43,0.28 -0.94,0.42 -1.52,0.42 -0.89,0 -1.63,-0.32 -2.22,-0.95 -0.59,-0.63 -0.89,-1.43 -0.89,-2.4 0,-0.87 0.3,-1.63 0.91,-2.28 0.61,-0.65 1.32,-0.98 2.15,-0.98 0.65,0 1.18,0.19 1.6,0.57 0.42,0.38 0.7,0.96 0.87,1.72 l 0.5,-2.11 h 1.31 z m -1.99,2.95 c -0.21,-0.96 -0.47,-1.65 -0.79,-2.07 -0.32,-0.42 -0.75,-0.63 -1.26,-0.63 -0.56,0 -1,0.26 -1.33,0.77 -0.33,0.51 -0.49,1.21 -0.49,2.09 0,0.95 0.15,1.68 0.46,2.18 0.31,0.5 0.76,0.75 1.34,0.75 0.53,0 0.95,-0.22 1.26,-0.66 0.3,-0.44 0.57,-1.25 0.81,-2.43 z" />
    <path
       id="path191"
       d="m 114.83,93.02 c 0.31,-0.05 0.54,-0.28 0.66,-0.67 0.07,-0.21 0.1,-0.41 0.1,-0.6 v -0.09 c 0,0 -0.01,-0.05 -0.02,-0.09 h -0.75 v -1.49 h 1.46 v 1.38 c 0,0.54 -0.11,1.02 -0.33,1.43 -0.22,0.41 -0.6,0.66 -1.13,0.76 v -0.63 0 z" />
    <path
       id="path192"
       d="m 120.27,90.79 c -0.28,-1.34 -0.59,-2.41 -0.94,-3.2 -0.34,-0.79 -0.65,-1.18 -0.94,-1.18 -0.14,0 -0.26,0.07 -0.34,0.21 -0.08,0.14 -0.14,0.33 -0.16,0.58 h -0.32 v -0.42 c 0,-0.56 0.08,-0.98 0.24,-1.25 0.16,-0.28 0.41,-0.41 0.73,-0.41 0.6,0 1.23,1.49 1.88,4.48 l 0.12,0.57 c 0.45,-1.07 0.75,-2.24 0.91,-3.51 0.02,-0.16 0.03,-0.28 0.05,-0.35 0.05,-0.41 0.14,-0.71 0.26,-0.9 0.12,-0.19 0.28,-0.28 0.48,-0.28 0.2,0 0.35,0.05 0.45,0.16 0.1,0.11 0.15,0.26 0.15,0.46 0,0.37 -0.28,1.14 -0.85,2.29 -0.57,1.15 -1,2.09 -1.29,2.8 0.07,0.52 0.13,1 0.17,1.41 0.04,0.41 0.06,0.77 0.06,1.06 0,0.47 -0.05,0.81 -0.14,1.01 -0.1,0.2 -0.25,0.3 -0.46,0.3 -0.21,0 -0.36,-0.08 -0.46,-0.25 -0.1,-0.17 -0.16,-0.42 -0.16,-0.75 0,-0.33 0.05,-0.73 0.14,-1.21 0.09,-0.48 0.24,-1.01 0.42,-1.62 z" />
    <path
       id="path193"
       d="m 123.8,94.44 c 0.72,-1.41 1.19,-2.44 1.4,-3.09 0.32,-0.98 0.48,-2.13 0.48,-3.45 0,-1.32 -0.18,-2.52 -0.55,-3.62 -0.23,-0.67 -0.68,-1.64 -1.35,-2.91 h 0.83 c 0.7,1.12 1.13,1.81 1.27,2.08 0.15,0.26 0.31,0.62 0.48,1.08 0.22,0.57 0.38,1.13 0.47,1.69 0.09,0.56 0.14,1.09 0.14,1.61 0,1.35 -0.21,2.55 -0.64,3.61 -0.27,0.68 -0.83,1.68 -1.67,3 0,0 -0.86,0 -0.86,0 z" />
  </g>
  <g
     id="g199">
    <path
       id="path194"
       d="m 35.69,81.37 c -0.72,1.39 -1.18,2.41 -1.39,3.07 -0.32,1 -0.49,2.15 -0.49,3.46 0,1.31 0.18,2.53 0.55,3.62 0.23,0.67 0.68,1.65 1.35,2.91 h -0.83 c -0.67,-1.04 -1.08,-1.7 -1.24,-1.99 -0.16,-0.29 -0.33,-0.68 -0.52,-1.17 -0.26,-0.67 -0.43,-1.39 -0.53,-2.16 -0.05,-0.4 -0.08,-0.77 -0.08,-1.13 0,-1.35 0.21,-2.55 0.64,-3.6 0.27,-0.67 0.83,-1.67 1.68,-3.01 0,0 0.86,0 0.86,0 z" />
    <path
       id="path195"
       d="m 44.03,85.29 -0.53,2.09 c -0.1,0.37 -0.21,0.72 -0.33,1.07 -0.12,0.35 -0.26,0.68 -0.4,0.99 0.15,0.41 0.32,0.71 0.5,0.91 0.18,0.2 0.37,0.3 0.57,0.3 0.15,0 0.28,-0.06 0.38,-0.17 0.1,-0.11 0.17,-0.27 0.19,-0.47 h 0.27 v 0.15 c 0,0.52 -0.07,0.91 -0.22,1.16 -0.15,0.25 -0.37,0.38 -0.66,0.38 -0.31,0 -0.56,-0.12 -0.75,-0.37 -0.19,-0.25 -0.36,-0.71 -0.53,-1.41 -0.37,0.62 -0.77,1.08 -1.2,1.36 -0.43,0.28 -0.94,0.42 -1.52,0.42 -0.89,0 -1.63,-0.32 -2.22,-0.95 -0.59,-0.63 -0.89,-1.43 -0.89,-2.4 0,-0.87 0.3,-1.63 0.91,-2.28 0.61,-0.65 1.32,-0.98 2.15,-0.98 0.65,0 1.18,0.19 1.6,0.57 0.42,0.38 0.7,0.96 0.87,1.72 l 0.5,-2.11 h 1.31 z m -1.99,2.95 c -0.21,-0.96 -0.47,-1.65 -0.79,-2.07 -0.32,-0.42 -0.75,-0.63 -1.26,-0.63 -0.56,0 -1,0.26 -1.33,0.77 -0.33,0.51 -0.49,1.21 -0.49,2.09 0,0.95 0.15,1.68 0.46,2.18 0.31,0.5 0.76,0.75 1.34,0.75 0.53,0 0.95,-0.22 1.26,-0.66 0.3,-0.44 0.57,-1.25 0.81,-2.43 z" />
    <path
       id="path196"
       d="m 52.86,85.29 -0.53,2.09 c -0.1,0.37 -0.21,0.72 -0.33,1.07 -0.12,0.35 -0.26,0.68 -0.4,0.99 0.15,0.41 0.32,0.71 0.5,0.91 0.18,0.2 0.37,0.3 0.57,0.3 0.15,0 0.28,-0.06 0.38,-0.17 0.1,-0.11 0.17,-0.27 0.19,-0.47 h 0.27 v 0.15 c 0,0.52 -0.07,0.91 -0.22,1.16 -0.15,0.25 -0.37,0.38 -0.66,0.38 -0.31,0 -0.56,-0.12 -0.75,-0.37 -0.19,-0.25 -0.36,-0.71 -0.53,-1.41 -0.37,0.62 -0.77,1.08 -1.2,1.36 -0.43,0.28 -0.94,0.42 -1.52,0.42 -0.89,0 -1.63,-0.32 -2.22,-0.95 -0.59,-0.63 -0.89,-1.43 -0.89,-2.4 0,-0.87 0.3,-1.63 0.91,-2.28 0.61,-0.65 1.32,-0.98 2.15,-0.98 0.65,0 1.18,0.19 1.6,0.57 0.42,0.38 0.7,0.96 0.87,1.72 l 0.5,-2.11 h 1.31 z m -1.99,2.95 c -0.21,-0.96 -0.47,-1.65 -0.79,-2.07 -0.32,-0.42 -0.75,-0.63 -1.26,-0.63 -0.56,0 -1,0.26 -1.33,0.77 -0.33,0.51 -0.49,1.21 -0.49,2.09 0,0.95 0.15,1.68 0.46,2.18 0.31,0.5 0.76,0.75 1.34,0.75 0.53,0 0.95,-0.22 1.26,-0.66 0.3,-0.44 0.57,-1.25 0.81,-2.43 z" />
    <path
       id="path197"
       d="m 55.04,93.02 c 0.31,-0.05 0.54,-0.28 0.66,-0.67 0.07,-0.21 0.1,-0.41 0.1,-0.6 v -0.09 c 0,0 0,-0.05 -0.02,-0.09 h -0.75 v -1.49 h 1.46 v 1.38 c 0,0.54 -0.11,1.02 -0.33,1.43 -0.22,0.41 -0.6,0.66 -1.13,0.76 v -0.63 z" />
    <path
       id="path198"
       d="M 60.48,90.79 C 60.2,89.45 59.89,88.38 59.54,87.59 59.2,86.8 58.89,86.41 58.6,86.41 c -0.14,0 -0.26,0.07 -0.34,0.21 -0.08,0.14 -0.14,0.33 -0.16,0.58 h -0.32 v -0.42 c 0,-0.56 0.08,-0.98 0.24,-1.25 0.16,-0.28 0.41,-0.41 0.73,-0.41 0.6,0 1.23,1.49 1.88,4.48 l 0.12,0.57 c 0.45,-1.07 0.75,-2.24 0.91,-3.51 0.02,-0.16 0.03,-0.28 0.05,-0.35 0.05,-0.41 0.14,-0.71 0.26,-0.9 0.12,-0.19 0.28,-0.28 0.48,-0.28 0.2,0 0.35,0.05 0.45,0.16 0.1,0.11 0.15,0.26 0.15,0.46 0,0.37 -0.28,1.14 -0.85,2.29 -0.57,1.15 -1,2.09 -1.29,2.8 0.07,0.52 0.13,1 0.17,1.41 0.04,0.41 0.06,0.77 0.06,1.06 0,0.47 -0.05,0.81 -0.14,1.01 -0.1,0.2 -0.25,0.3 -0.46,0.3 -0.21,0 -0.36,-0.08 -0.46,-0.25 -0.1,-0.17 -0.16,-0.42 -0.16,-0.75 0,-0.33 0.05,-0.73 0.14,-1.21 0.09,-0.48 0.24,-1.01 0.42,-1.62 z" />
    <path
       id="path199"
       d="m 64.01,94.44 c 0.72,-1.41 1.19,-2.44 1.4,-3.09 0.32,-0.98 0.48,-2.13 0.48,-3.45 0,-1.32 -0.18,-2.52 -0.55,-3.62 -0.23,-0.67 -0.68,-1.64 -1.35,-2.91 h 0.83 c 0.7,1.12 1.13,1.81 1.27,2.08 0.15,0.26 0.31,0.62 0.48,1.08 0.22,0.57 0.38,1.13 0.47,1.69 0.09,0.56 0.14,1.09 0.14,1.61 0,1.35 -0.21,2.55 -0.64,3.61 -0.27,0.68 -0.83,1.68 -1.67,3 0,0 -0.86,0 -0.86,0 z" />
  </g>
  <g
     id="g204">
    <path
       id="path200"
       d="m 164.82,81.37 c -0.72,1.39 -1.18,2.41 -1.39,3.07 -0.32,1 -0.49,2.15 -0.49,3.46 0,1.31 0.18,2.53 0.55,3.62 0.23,0.67 0.68,1.65 1.35,2.91 h -0.83 c -0.67,-1.04 -1.08,-1.7 -1.24,-1.99 -0.16,-0.29 -0.33,-0.68 -0.52,-1.17 -0.26,-0.67 -0.43,-1.39 -0.53,-2.16 -0.05,-0.4 -0.08,-0.77 -0.08,-1.13 0,-1.35 0.21,-2.55 0.64,-3.6 0.27,-0.67 0.83,-1.67 1.68,-3.01 0,0 0.86,0 0.86,0 z" />
    <path
       id="path201"
       d="m 173.15,85.29 -0.53,2.09 c -0.1,0.37 -0.21,0.72 -0.33,1.07 -0.12,0.35 -0.26,0.68 -0.4,0.99 0.15,0.41 0.32,0.71 0.5,0.91 0.18,0.2 0.37,0.3 0.57,0.3 0.15,0 0.28,-0.06 0.38,-0.17 0.1,-0.11 0.17,-0.27 0.19,-0.47 h 0.27 v 0.15 c 0,0.52 -0.07,0.91 -0.22,1.16 -0.15,0.25 -0.37,0.38 -0.66,0.38 -0.31,0 -0.56,-0.12 -0.75,-0.37 -0.19,-0.25 -0.36,-0.71 -0.53,-1.41 -0.37,0.62 -0.77,1.08 -1.2,1.36 -0.43,0.28 -0.94,0.42 -1.52,0.42 -0.89,0 -1.63,-0.32 -2.22,-0.95 -0.59,-0.63 -0.89,-1.43 -0.89,-2.4 0,-0.87 0.3,-1.63 0.91,-2.28 0.61,-0.65 1.32,-0.98 2.15,-0.98 0.65,0 1.18,0.19 1.6,0.57 0.42,0.38 0.7,0.96 0.87,1.72 l 0.5,-2.11 h 1.31 z m -1.99,2.95 c -0.21,-0.96 -0.47,-1.65 -0.79,-2.07 -0.32,-0.42 -0.75,-0.63 -1.26,-0.63 -0.56,0 -1,0.26 -1.33,0.77 -0.33,0.51 -0.49,1.21 -0.49,2.09 0,0.95 0.15,1.68 0.46,2.18 0.31,0.5 0.76,0.75 1.34,0.75 0.53,0 0.95,-0.22 1.26,-0.66 0.31,-0.44 0.58,-1.25 0.81,-2.43 z" />
    <path
       id="path202"
       d="m 175.33,93.02 c 0.31,-0.05 0.54,-0.28 0.66,-0.67 0.07,-0.21 0.1,-0.41 0.1,-0.6 v -0.09 c 0,0 0,-0.05 -0.02,-0.09 h -0.75 v -1.49 h 1.46 v 1.38 c 0,0.54 -0.11,1.02 -0.33,1.43 -0.22,0.41 -0.6,0.66 -1.13,0.76 v -0.63 0 z" />
    <path
       id="path203"
       d="m 180.78,90.79 c -0.28,-1.34 -0.59,-2.41 -0.94,-3.2 -0.34,-0.79 -0.65,-1.18 -0.94,-1.18 -0.14,0 -0.26,0.07 -0.34,0.21 -0.08,0.14 -0.14,0.33 -0.16,0.58 h -0.32 v -0.42 c 0,-0.56 0.08,-0.98 0.24,-1.25 0.16,-0.28 0.41,-0.41 0.73,-0.41 0.6,0 1.23,1.49 1.88,4.48 l 0.12,0.57 c 0.45,-1.07 0.75,-2.24 0.91,-3.51 0.02,-0.16 0.03,-0.28 0.05,-0.35 0.05,-0.41 0.14,-0.71 0.26,-0.9 0.12,-0.19 0.28,-0.28 0.48,-0.28 0.2,0 0.35,0.05 0.45,0.16 0.1,0.11 0.15,0.26 0.15,0.46 0,0.37 -0.28,1.14 -0.85,2.29 -0.57,1.15 -1,2.09 -1.29,2.8 0.07,0.52 0.13,1 0.17,1.41 0.04,0.41 0.06,0.77 0.06,1.06 0,0.47 -0.05,0.81 -0.14,1.01 -0.1,0.2 -0.25,0.3 -0.46,0.3 -0.21,0 -0.36,-0.08 -0.46,-0.25 -0.1,-0.17 -0.16,-0.42 -0.16,-0.75 0,-0.33 0.05,-0.73 0.14,-1.21 0.09,-0.48 0.23,-1.01 0.42,-1.62 z" />
    <path
       id="path204"
       d="m 184.3,94.44 c 0.72,-1.41 1.19,-2.44 1.4,-3.09 0.32,-0.98 0.48,-2.13 0.48,-3.45 0,-1.32 -0.18,-2.52 -0.55,-3.62 -0.23,-0.67 -0.68,-1.64 -1.35,-2.91 h 0.83 c 0.7,1.12 1.13,1.81 1.27,2.08 0.15,0.26 0.31,0.62 0.48,1.08 0.22,0.57 0.38,1.13 0.47,1.69 0.09,0.56 0.14,1.09 0.14,1.61 0,1.35 -0.21,2.55 -0.64,3.61 -0.27,0.68 -0.83,1.68 -1.67,3 0,0 -0.86,0 -0.86,0 z" />
  </g>
  <g
     id="g209">
    <path
       id="path205"
       d="m 227.45,81.37 c -0.72,1.39 -1.18,2.41 -1.39,3.07 -0.32,1 -0.49,2.15 -0.49,3.46 0,1.31 0.18,2.53 0.55,3.62 0.23,0.67 0.68,1.65 1.35,2.91 h -0.83 c -0.67,-1.04 -1.08,-1.7 -1.24,-1.99 -0.16,-0.29 -0.33,-0.68 -0.52,-1.17 -0.26,-0.67 -0.43,-1.39 -0.53,-2.16 -0.05,-0.4 -0.08,-0.77 -0.08,-1.13 0,-1.35 0.21,-2.55 0.64,-3.6 0.27,-0.67 0.83,-1.67 1.68,-3.01 0,0 0.86,0 0.86,0 z" />
    <path
       id="path206"
       d="m 235.79,85.29 -0.53,2.09 c -0.1,0.37 -0.21,0.72 -0.33,1.07 -0.12,0.35 -0.26,0.68 -0.4,0.99 0.15,0.41 0.32,0.71 0.5,0.91 0.18,0.2 0.37,0.3 0.57,0.3 0.15,0 0.28,-0.06 0.38,-0.17 0.1,-0.11 0.17,-0.27 0.19,-0.47 h 0.27 v 0.15 c 0,0.52 -0.07,0.91 -0.22,1.16 -0.15,0.25 -0.37,0.38 -0.66,0.38 -0.31,0 -0.56,-0.12 -0.75,-0.37 -0.19,-0.25 -0.36,-0.71 -0.53,-1.41 -0.37,0.62 -0.77,1.08 -1.2,1.36 -0.43,0.28 -0.94,0.42 -1.52,0.42 -0.89,0 -1.63,-0.32 -2.22,-0.95 -0.59,-0.63 -0.89,-1.43 -0.89,-2.4 0,-0.87 0.3,-1.63 0.91,-2.28 0.61,-0.65 1.32,-0.98 2.15,-0.98 0.65,0 1.18,0.19 1.6,0.57 0.42,0.38 0.7,0.96 0.87,1.72 l 0.5,-2.11 h 1.31 z m -1.99,2.95 c -0.21,-0.96 -0.47,-1.65 -0.79,-2.07 -0.32,-0.42 -0.75,-0.63 -1.26,-0.63 -0.56,0 -1,0.26 -1.33,0.77 -0.33,0.51 -0.49,1.21 -0.49,2.09 0,0.95 0.15,1.68 0.46,2.18 0.31,0.5 0.76,0.75 1.34,0.75 0.53,0 0.95,-0.22 1.26,-0.66 0.3,-0.44 0.57,-1.25 0.81,-2.43 z" />
    <path
       id="path207"
       d="m 237.97,93.02 c 0.31,-0.05 0.54,-0.28 0.66,-0.67 0.07,-0.21 0.1,-0.41 0.1,-0.6 v -0.09 c 0,0 0,-0.05 -0.02,-0.09 h -0.75 v -1.49 h 1.46 v 1.38 c 0,0.54 -0.11,1.02 -0.33,1.43 -0.22,0.41 -0.6,0.66 -1.13,0.76 v -0.63 0 z" />
    <path
       id="path208"
       d="m 243.41,90.79 c -0.28,-1.34 -0.59,-2.41 -0.94,-3.2 -0.34,-0.79 -0.65,-1.18 -0.94,-1.18 -0.14,0 -0.26,0.07 -0.34,0.21 -0.08,0.14 -0.14,0.33 -0.16,0.58 h -0.32 v -0.42 c 0,-0.56 0.08,-0.98 0.24,-1.25 0.16,-0.28 0.41,-0.41 0.73,-0.41 0.6,0 1.23,1.49 1.88,4.48 l 0.12,0.57 c 0.45,-1.07 0.75,-2.24 0.91,-3.51 0.02,-0.16 0.03,-0.28 0.05,-0.35 0.05,-0.41 0.14,-0.71 0.26,-0.9 0.12,-0.19 0.28,-0.28 0.48,-0.28 0.2,0 0.35,0.05 0.45,0.16 0.1,0.11 0.15,0.26 0.15,0.46 0,0.37 -0.28,1.14 -0.85,2.29 -0.57,1.15 -1,2.09 -1.29,2.8 0.07,0.52 0.13,1 0.17,1.41 0.04,0.41 0.06,0.77 0.06,1.06 0,0.47 -0.05,0.81 -0.14,1.01 -0.1,0.2 -0.25,0.3 -0.46,0.3 -0.21,0 -0.36,-0.08 -0.46,-0.25 -0.1,-0.17 -0.16,-0.42 -0.16,-0.75 0,-0.33 0.05,-0.73 0.14,-1.21 0.09,-0.48 0.24,-1.01 0.42,-1.62 z" />
    <path
       id="path209"
       d="m 246.93,94.44 c 0.72,-1.41 1.19,-2.44 1.4,-3.09 0.32,-0.98 0.48,-2.13 0.48,-3.45 0,-1.32 -0.18,-2.52 -0.55,-3.62 -0.23,-0.67 -0.68,-1.64 -1.35,-2.91 h 0.83 c 0.7,1.12 1.13,1.81 1.27,2.08 0.15,0.26 0.31,0.62 0.48,1.08 0.22,0.57 0.38,1.13 0.47,1.69 0.09,0.56 0.14,1.09 0.14,1.61 0,1.35 -0.21,2.55 -0.64,3.61 -0.27,0.68 -0.83,1.68 -1.67,3 0,0 -0.86,0 -0.86,0 z" />
  </g>
  <g
     id="g421">
    <g
       id="g390">
      <g
         id="g389">
        <g
           id="g386">
          <line
             id="line385"
             class="st2"
             x1="85.459999"
             y1="83.129997"
             x2="85.459999"
             y2="73.889999" />
        </g>
        <g
           id="g388">
          <g
             id="g387">
            <polygon
               id="polygon386"
               class="st4"
               points="85.46,68.75 83.72,75.03 87.18,75.03 " />
          </g>
        </g>
      </g>
    </g>
    <g
       id="g395">
      <g
         id="g394">
        <g
           id="g391">
          <line
             id="line390"
             class="st2"
             x1="219.2"
             y1="78.529999"
             x2="219.2"
             y2="69.290001" />
        </g>
        <g
           id="g393">
          <g
             id="g392">
            <polygon
               id="polygon391"
               class="st4"
               points="219.2,83.67 217.47,77.38 220.92,77.38 " />
          </g>
        </g>
      </g>
    </g>
    <g
       id="g400">
      <g
         id="g399">
        <g
           id="g396">
          <line
             id="line395"
             class="st2"
             x1="21.74"
             y1="77.970001"
             x2="21.74"
             y2="68.730003" />
        </g>
        <g
           id="g398">
          <g
             id="g397">
            <polygon
               id="polygon396"
               class="st4"
               points="21.74,83.11 20.01,76.82 23.47,76.82 " />
          </g>
        </g>
      </g>
    </g>
    <g
       id="g405">
      <g
         id="g404">
        <g
           id="g401">
          <line
             id="line400"
             class="st2"
             x1="276.85999"
             y1="78.529999"
             x2="276.85999"
             y2="69.290001" />
        </g>
        <g
           id="g403">
          <g
             id="g402">
            <polygon
               id="polygon401"
               class="st4"
               points="276.86,83.67 275.13,77.38 278.58,77.38 " />
          </g>
        </g>
      </g>
    </g>
    <g
       id="g420">
      <g
         id="g419">
        <g
           id="g416">
          <line
             id="line415"
             class="st2"
             x1="154.33"
             y1="83.129997"
             x2="154.33"
             y2="73.889999" />
        </g>
        <g
           id="g418">
          <g
             id="g417">
            <polygon
               id="polygon416"
               class="st4"
               points="154.33,68.75 152.59,75.03 156.05,75.03 " />
          </g>
        </g>
      </g>
    </g>
    <line
       id="line420"
       class="st1"
       x1="21.370001"
       y1="68.730003"
       x2="277.29999"
       y2="68.730003" />
  </g>
  <g
     id="g441">
    <path
       id="path421"
       d="m 63.25,55.91 v -0.47 c 0.44,-0.04 0.75,-0.12 0.93,-0.22 0.18,-0.1 0.31,-0.34 0.39,-0.72 h 0.48 v 4.87 H 64.4 v -3.46 c 0,0 -1.15,0 -1.15,0 z" />
    <path
       id="path422"
       d="m 66.95,58.27 c 0.15,-0.31 0.45,-0.6 0.89,-0.85 l 0.66,-0.38 c 0.29,-0.17 0.5,-0.32 0.62,-0.44 0.19,-0.19 0.28,-0.41 0.28,-0.65 0,-0.29 -0.09,-0.51 -0.26,-0.68 -0.17,-0.17 -0.4,-0.25 -0.68,-0.25 -0.42,0 -0.71,0.16 -0.87,0.48 -0.09,0.17 -0.13,0.41 -0.14,0.71 h -0.62 c 0.01,-0.43 0.09,-0.77 0.24,-1.04 0.27,-0.47 0.74,-0.71 1.41,-0.71 0.56,0 0.97,0.15 1.23,0.46 0.26,0.3 0.39,0.64 0.39,1.01 0,0.39 -0.14,0.73 -0.41,1 -0.16,0.16 -0.45,0.36 -0.86,0.59 l -0.47,0.26 c -0.22,0.12 -0.4,0.24 -0.53,0.35 -0.23,0.2 -0.37,0.42 -0.43,0.66 h 2.67 v 0.58 h -3.36 c 0.01,-0.42 0.09,-0.79 0.24,-1.1 z" />
    <path
       id="path423"
       d="m 77.37,55.39 c 0.59,0.57 0.92,1.23 0.99,1.96 h -1.14 c -0.13,-0.55 -0.38,-0.99 -0.76,-1.32 -0.38,-0.33 -0.91,-0.49 -1.59,-0.49 -0.83,0 -1.5,0.3 -2.02,0.89 -0.51,0.6 -0.77,1.51 -0.77,2.74 0,1.01 0.23,1.83 0.69,2.45 0.46,0.63 1.15,0.94 2.07,0.94 0.84,0 1.49,-0.33 1.93,-0.99 0.23,-0.35 0.41,-0.8 0.52,-1.37 h 1.14 c -0.1,0.91 -0.43,1.67 -1,2.28 -0.68,0.74 -1.59,1.11 -2.73,1.11 -0.99,0 -1.82,-0.3 -2.49,-0.91 -0.88,-0.8 -1.33,-2.04 -1.33,-3.71 0,-1.27 0.33,-2.31 1,-3.12 0.72,-0.88 1.71,-1.33 2.97,-1.33 1.09,0 1.92,0.29 2.52,0.87 z" />
    <path
       id="path424"
       d="m 79.57,60.8 v -0.98 h 2.55 v -2.57 h 1 v 2.57 h 2.55 v 0.98 h -2.55 v 2.57 h -1 V 60.8 Z" />
    <path
       id="path425"
       d="m 86.71,55.91 v -0.47 c 0.44,-0.04 0.75,-0.12 0.93,-0.22 0.18,-0.1 0.31,-0.34 0.39,-0.72 h 0.48 v 4.87 h -0.66 v -3.46 c 0,0 -1.14,0 -1.14,0 z" />
    <path
       id="path426"
       d="m 90.41,58.27 c 0.15,-0.31 0.45,-0.6 0.89,-0.85 l 0.66,-0.38 c 0.29,-0.17 0.5,-0.32 0.62,-0.44 0.19,-0.19 0.28,-0.41 0.28,-0.65 0,-0.29 -0.09,-0.51 -0.26,-0.68 -0.17,-0.17 -0.4,-0.25 -0.68,-0.25 -0.42,0 -0.71,0.16 -0.87,0.48 -0.09,0.17 -0.13,0.41 -0.14,0.71 h -0.62 c 0.01,-0.43 0.09,-0.77 0.24,-1.04 0.27,-0.47 0.74,-0.71 1.41,-0.71 0.56,0 0.97,0.15 1.23,0.46 0.26,0.3 0.39,0.64 0.39,1.01 0,0.39 -0.14,0.73 -0.41,1 -0.16,0.16 -0.45,0.36 -0.86,0.59 l -0.47,0.26 c -0.22,0.12 -0.4,0.24 -0.53,0.35 -0.23,0.2 -0.37,0.42 -0.43,0.66 h 2.67 v 0.58 h -3.36 c 0,-0.42 0.09,-0.79 0.24,-1.1 z" />
    <path
       id="path427"
       d="m 100.82,55.39 c 0.59,0.57 0.92,1.23 0.99,1.96 h -1.14 C 100.54,56.8 100.29,56.36 99.91,56.03 99.53,55.7 99,55.54 98.32,55.54 c -0.83,0 -1.5,0.3 -2.02,0.89 -0.51,0.6 -0.77,1.51 -0.77,2.74 0,1.01 0.23,1.83 0.69,2.45 0.46,0.63 1.15,0.94 2.07,0.94 0.84,0 1.49,-0.33 1.93,-0.99 0.23,-0.35 0.41,-0.8 0.52,-1.37 h 1.14 c -0.1,0.91 -0.43,1.67 -1,2.28 -0.68,0.74 -1.59,1.11 -2.73,1.11 -0.99,0 -1.82,-0.3 -2.49,-0.91 -0.88,-0.8 -1.33,-2.04 -1.33,-3.71 0,-1.27 0.33,-2.31 1,-3.12 0.72,-0.88 1.71,-1.33 2.97,-1.33 1.09,0 1.93,0.29 2.52,0.87 z" />
    <path
       id="path428"
       d="m 113.16,55.91 v -0.47 c 0.44,-0.04 0.75,-0.12 0.93,-0.22 0.18,-0.1 0.31,-0.34 0.39,-0.72 h 0.48 v 4.87 h -0.66 v -3.46 c 0,0 -1.14,0 -1.14,0 z" />
    <path
       id="path429"
       d="m 116.86,58.27 c 0.15,-0.31 0.45,-0.6 0.89,-0.85 l 0.66,-0.38 c 0.29,-0.17 0.5,-0.32 0.62,-0.44 0.19,-0.19 0.28,-0.41 0.28,-0.65 0,-0.29 -0.09,-0.51 -0.26,-0.68 -0.17,-0.17 -0.4,-0.25 -0.68,-0.25 -0.42,0 -0.71,0.16 -0.87,0.48 -0.09,0.17 -0.13,0.41 -0.14,0.71 h -0.62 c 0.01,-0.43 0.09,-0.77 0.24,-1.04 0.27,-0.47 0.74,-0.71 1.41,-0.71 0.56,0 0.97,0.15 1.23,0.46 0.26,0.3 0.39,0.64 0.39,1.01 0,0.39 -0.14,0.73 -0.41,1 -0.16,0.16 -0.45,0.36 -0.86,0.59 l -0.47,0.26 c -0.22,0.12 -0.4,0.24 -0.53,0.35 -0.23,0.2 -0.37,0.42 -0.43,0.66 h 2.67 v 0.58 h -3.36 c 0,-0.42 0.09,-0.79 0.24,-1.1 z" />
    <path
       id="path430"
       d="m 127.27,55.39 c 0.59,0.57 0.92,1.23 0.99,1.96 h -1.14 c -0.13,-0.55 -0.38,-0.99 -0.76,-1.32 -0.38,-0.33 -0.91,-0.49 -1.59,-0.49 -0.83,0 -1.5,0.3 -2.02,0.89 -0.51,0.6 -0.77,1.51 -0.77,2.74 0,1.01 0.23,1.83 0.69,2.45 0.46,0.63 1.15,0.94 2.07,0.94 0.84,0 1.49,-0.33 1.93,-0.99 0.23,-0.35 0.41,-0.8 0.52,-1.37 h 1.14 c -0.1,0.91 -0.43,1.67 -1,2.28 -0.68,0.74 -1.59,1.11 -2.73,1.11 -0.99,0 -1.82,-0.3 -2.49,-0.91 -0.88,-0.8 -1.33,-2.04 -1.33,-3.71 0,-1.27 0.33,-2.31 1,-3.12 0.72,-0.88 1.71,-1.33 2.97,-1.33 1.09,0 1.93,0.29 2.52,0.87 z" />
    <path
       id="path431"
       d="m 129.48,60.8 v -0.98 h 2.55 v -2.57 h 1 v 2.57 h 2.55 v 0.98 h -2.55 v 2.57 h -1 V 60.8 Z" />
    <path
       id="path432"
       d="m 136.61,55.91 v -0.47 c 0.44,-0.04 0.75,-0.12 0.93,-0.22 0.18,-0.1 0.31,-0.34 0.39,-0.72 h 0.48 v 4.87 h -0.66 v -3.46 z" />
    <path
       id="path433"
       d="m 143.02,54.88 c 0.22,0.28 0.32,0.58 0.32,0.88 h -0.61 c -0.04,-0.19 -0.09,-0.35 -0.17,-0.46 -0.15,-0.2 -0.37,-0.31 -0.67,-0.31 -0.34,0 -0.62,0.16 -0.82,0.48 -0.2,0.32 -0.32,0.77 -0.34,1.36 0.14,-0.21 0.32,-0.36 0.53,-0.46 0.2,-0.09 0.41,-0.14 0.66,-0.14 0.41,0 0.77,0.13 1.07,0.39 0.31,0.26 0.46,0.65 0.46,1.17 0,0.44 -0.14,0.84 -0.43,1.18 -0.29,0.34 -0.7,0.51 -1.24,0.51 -0.46,0 -0.85,-0.17 -1.19,-0.52 -0.34,-0.35 -0.5,-0.93 -0.5,-1.75 0,-0.61 0.07,-1.12 0.22,-1.55 0.28,-0.81 0.81,-1.22 1.56,-1.22 0.56,0.02 0.94,0.16 1.15,0.44 z m -0.46,3.74 c 0.16,-0.22 0.24,-0.47 0.24,-0.77 0,-0.25 -0.07,-0.49 -0.22,-0.72 -0.15,-0.23 -0.4,-0.34 -0.78,-0.34 -0.26,0 -0.5,0.09 -0.7,0.26 -0.2,0.18 -0.3,0.44 -0.3,0.79 0,0.31 0.09,0.57 0.27,0.78 0.18,0.21 0.43,0.32 0.75,0.32 0.34,0.01 0.58,-0.1 0.74,-0.32 z" />
    <path
       id="path434"
       d="m 151.73,55.99 c 0.57,0.76 0.86,1.74 0.86,2.92 0,1.29 -0.33,2.35 -0.98,3.21 -0.77,1 -1.86,1.5 -3.28,1.5 -1.32,0 -2.37,-0.44 -3.12,-1.31 -0.68,-0.84 -1.01,-1.91 -1.01,-3.2 0,-1.16 0.29,-2.16 0.87,-2.99 0.74,-1.06 1.84,-1.59 3.29,-1.59 1.51,0 2.64,0.48 3.37,1.46 z m -1.03,5.49 c 0.46,-0.74 0.69,-1.58 0.69,-2.54 0,-1.01 -0.26,-1.83 -0.79,-2.45 -0.53,-0.62 -1.25,-0.93 -2.17,-0.93 -0.92,0 -1.62,0.31 -2.18,0.92 -0.56,0.61 -0.84,1.51 -0.84,2.71 0,0.95 0.24,1.76 0.72,2.41 0.48,0.66 1.26,0.98 2.35,0.98 1.02,0 1.76,-0.37 2.22,-1.1 z" />
    <path
       id="path435"
       d="m 163.73,55.91 v -0.47 c 0.44,-0.04 0.75,-0.12 0.93,-0.22 0.18,-0.1 0.31,-0.34 0.39,-0.72 h 0.48 v 4.87 h -0.66 v -3.46 z" />
    <path
       id="path436"
       d="m 170.14,54.88 c 0.22,0.28 0.32,0.58 0.32,0.88 h -0.61 c -0.04,-0.19 -0.09,-0.35 -0.17,-0.46 -0.15,-0.2 -0.37,-0.31 -0.67,-0.31 -0.34,0 -0.62,0.16 -0.82,0.48 -0.2,0.32 -0.32,0.77 -0.34,1.36 0.14,-0.21 0.32,-0.36 0.53,-0.46 0.2,-0.09 0.41,-0.14 0.66,-0.14 0.41,0 0.77,0.13 1.07,0.39 0.31,0.26 0.46,0.65 0.46,1.17 0,0.44 -0.14,0.84 -0.43,1.18 -0.29,0.34 -0.7,0.51 -1.24,0.51 -0.46,0 -0.85,-0.17 -1.19,-0.52 -0.34,-0.35 -0.5,-0.93 -0.5,-1.75 0,-0.61 0.07,-1.12 0.22,-1.55 0.28,-0.81 0.81,-1.22 1.56,-1.22 0.55,0.02 0.94,0.16 1.15,0.44 z m -0.46,3.74 c 0.16,-0.22 0.24,-0.47 0.24,-0.77 0,-0.25 -0.07,-0.49 -0.22,-0.72 -0.15,-0.23 -0.4,-0.34 -0.78,-0.34 -0.26,0 -0.5,0.09 -0.7,0.26 -0.2,0.18 -0.3,0.44 -0.3,0.79 0,0.31 0.09,0.57 0.27,0.78 0.18,0.21 0.43,0.32 0.75,0.32 0.34,0.01 0.58,-0.1 0.74,-0.32 z" />
    <path
       id="path437"
       d="m 178.85,55.99 c 0.57,0.76 0.86,1.74 0.86,2.92 0,1.29 -0.33,2.35 -0.98,3.21 -0.77,1 -1.86,1.5 -3.28,1.5 -1.32,0 -2.37,-0.44 -3.12,-1.31 -0.68,-0.84 -1.01,-1.91 -1.01,-3.2 0,-1.16 0.29,-2.16 0.87,-2.99 0.74,-1.06 1.84,-1.59 3.29,-1.59 1.51,0 2.64,0.48 3.37,1.46 z m -1.03,5.49 c 0.46,-0.74 0.69,-1.58 0.69,-2.54 0,-1.01 -0.26,-1.83 -0.79,-2.45 -0.53,-0.62 -1.25,-0.93 -2.17,-0.93 -0.92,0 -1.62,0.31 -2.18,0.92 -0.56,0.61 -0.84,1.51 -0.84,2.71 0,0.95 0.24,1.76 0.72,2.41 0.48,0.66 1.26,0.98 2.35,0.98 1.02,0 1.76,-0.37 2.22,-1.1 z" />
    <path
       id="path438"
       d="m 180.72,60.8 v -0.98 h 2.55 v -2.57 h 1 v 2.57 h 2.55 v 0.98 h -2.55 v 2.57 h -1 V 60.8 Z" />
    <path
       id="path439"
       d="m 187.85,55.91 v -0.47 c 0.44,-0.04 0.75,-0.12 0.93,-0.22 0.18,-0.1 0.31,-0.34 0.39,-0.72 h 0.48 v 4.87 h -0.66 v -3.46 z" />
    <path
       id="path440"
       d="m 194.26,54.88 c 0.22,0.28 0.32,0.58 0.32,0.88 h -0.61 c -0.04,-0.19 -0.09,-0.35 -0.17,-0.46 -0.15,-0.2 -0.37,-0.31 -0.67,-0.31 -0.34,0 -0.62,0.16 -0.82,0.48 -0.2,0.32 -0.32,0.77 -0.34,1.36 0.14,-0.21 0.32,-0.36 0.53,-0.46 0.2,-0.09 0.41,-0.14 0.66,-0.14 0.41,0 0.77,0.13 1.07,0.39 0.31,0.26 0.46,0.65 0.46,1.17 0,0.44 -0.14,0.84 -0.43,1.18 -0.29,0.34 -0.7,0.51 -1.24,0.51 -0.46,0 -0.85,-0.17 -1.19,-0.52 -0.34,-0.35 -0.5,-0.93 -0.5,-1.75 0,-0.61 0.07,-1.12 0.22,-1.55 0.28,-0.81 0.81,-1.22 1.56,-1.22 0.56,0.02 0.94,0.16 1.15,0.44 z m -0.46,3.74 c 0.16,-0.22 0.24,-0.47 0.24,-0.77 0,-0.25 -0.07,-0.49 -0.22,-0.72 -0.15,-0.23 -0.4,-0.34 -0.78,-0.34 -0.26,0 -0.5,0.09 -0.7,0.26 -0.2,0.18 -0.3,0.44 -0.3,0.79 0,0.31 0.09,0.57 0.27,0.78 0.18,0.21 0.43,0.32 0.75,0.32 0.34,0.01 0.58,-0.1 0.74,-0.32 z" />
    <path
       id="path441"
       d="m 202.97,55.99 c 0.57,0.76 0.86,1.74 0.86,2.92 0,1.29 -0.33,2.35 -0.98,3.21 -0.77,1 -1.86,1.5 -3.28,1.5 -1.32,0 -2.37,-0.44 -3.12,-1.31 -0.68,-0.84 -1.01,-1.91 -1.01,-3.2 0,-1.16 0.29,-2.16 0.87,-2.99 0.74,-1.06 1.84,-1.59 3.29,-1.59 1.52,0 2.64,0.48 3.37,1.46 z m -1.03,5.49 c 0.46,-0.74 0.69,-1.58 0.69,-2.54 0,-1.01 -0.26,-1.83 -0.79,-2.45 -0.53,-0.62 -1.25,-0.93 -2.17,-0.93 -0.92,0 -1.62,0.31 -2.18,0.92 -0.56,0.61 -0.84,1.51 -0.84,2.71 0,0.95 0.24,1.76 0.72,2.41 0.48,0.66 1.26,0.98 2.35,0.98 1.02,0 1.76,-0.37 2.22,-1.1 z" />
  </g>
  <text
     class="st3"
     id="text2"
     x="5"
     y="19"><tspan
       x="5"
       y="19"
       id="tspan1">Basic.net</tspan><tspan
       x="5"
       y="45.400002"
       id="tspan2">8 isotope approximation network</tspan></text>
</svg>
