<?xml version="1.0" encoding="utf-8"?>
<!-- Generator: Adobe Illustrator 23.0.4, SVG Export Plug-In . SVG Version: 6.00 Build 0)  -->
<svg version="1.1" id="Layer_1" xmlns="http://www.w3.org/2000/svg" xmlns:xlink="http://www.w3.org/1999/xlink" x="0px" y="0px"
	 viewBox="0 0 650.17 492" style="enable-background:new 0 0 650.17 492;" xml:space="preserve">
<style type="text/css">
	.st0{fill:none;stroke:#000000;stroke-linecap:round;stroke-linejoin:round;stroke-miterlimit:10;}
	.st1{fill:none;stroke:#009245;stroke-width:2;stroke-linecap:round;stroke-linejoin:round;stroke-miterlimit:10;}
	.st2{fill:#006837;}
	.st3{fill:none;stroke:#0071BC;stroke-width:2;stroke-linecap:round;stroke-linejoin:round;stroke-miterlimit:10;}
	.st4{fill:#0071BC;}
	.st5{fill:none;stroke:#C1272D;stroke-width:3;stroke-linecap:round;stroke-linejoin:round;stroke-miterlimit:10;}
	.st6{fill:#C1272D;}
</style>
<path class="st0" d="M82.22,411.8h534.6 M82.22,411.8v-18 M97.49,411.8v-9 M112.77,411.8v-9 M128.04,411.8v-9 M143.32,411.8v-9
	 M158.59,411.8v-18 M173.87,411.8v-9 M189.14,411.8v-9 M204.41,411.8v-9 M219.69,411.8v-9 M234.96,411.8v-18 M250.24,411.8v-9
	 M265.51,411.8v-9 M280.79,411.8v-9 M296.06,411.8v-9 M311.33,411.8v-18 M326.61,411.8v-9 M341.88,411.8v-9 M357.16,411.8v-9
	 M372.43,411.8v-9 M387.71,411.8v-18 M402.98,411.8v-9 M418.25,411.8v-9 M433.53,411.8v-9 M448.8,411.8v-9 M464.08,411.8v-18
	 M479.35,411.8v-9 M494.63,411.8v-9 M509.9,411.8v-9 M525.17,411.8v-9 M540.45,411.8v-18 M555.72,411.8v-9 M571,411.8v-9
	 M586.27,411.8v-9 M601.55,411.8v-9 M616.82,411.8v-18"/>
<g>
	<path d="M150.09,433.14v-1.21c1.14-0.11,1.94-0.3,2.39-0.56c0.45-0.26,0.79-0.88,1.01-1.85h1.25v12.53h-1.69v-8.91H150.09z"/>
	<path d="M166.78,431.48c0.56,1.04,0.84,2.46,0.84,4.26c0,1.71-0.25,3.13-0.76,4.25c-0.74,1.61-1.95,2.41-3.62,2.41
		c-1.51,0-2.64-0.66-3.38-1.97c-0.62-1.1-0.92-2.57-0.92-4.41c0-1.43,0.18-2.66,0.55-3.68c0.69-1.91,1.94-2.87,3.75-2.87
		C164.87,429.47,166.05,430.14,166.78,431.48z M165.19,439.87c0.49-0.73,0.73-2.08,0.73-4.06c0-1.43-0.18-2.61-0.53-3.53
		c-0.35-0.92-1.04-1.38-2.05-1.38c-0.93,0-1.62,0.44-2.05,1.31c-0.43,0.88-0.65,2.17-0.65,3.87c0,1.28,0.14,2.31,0.41,3.09
		c0.42,1.19,1.14,1.78,2.17,1.78C164.04,440.96,164.7,440.59,165.19,439.87z"/>
</g>
<g>
	<path d="M174.02,425.55v0.83c-0.24,0.24-0.56,0.64-0.97,1.23s-0.76,1.21-1.07,1.88c-0.31,0.66-0.54,1.25-0.69,1.79
		c-0.1,0.35-0.23,0.91-0.39,1.68h-1.05c0.24-1.44,0.77-2.87,1.58-4.29c0.48-0.83,0.99-1.56,1.52-2.16h-4.17v-0.95H174.02z"/>
</g>
<g>
	<path d="M292.35,439.23c0.39-0.8,1.15-1.53,2.28-2.19l1.69-0.98c0.76-0.44,1.29-0.81,1.59-1.13c0.48-0.49,0.72-1.04,0.72-1.67
		c0-0.73-0.22-1.32-0.66-1.75s-1.03-0.65-1.76-0.65c-1.08,0-1.83,0.41-2.25,1.23c-0.22,0.44-0.35,1.05-0.37,1.83h-1.61
		c0.02-1.1,0.22-1.99,0.61-2.68c0.69-1.22,1.9-1.83,3.63-1.83c1.44,0,2.49,0.39,3.16,1.17s1,1.65,1,2.6c0,1.01-0.35,1.87-1.06,2.58
		c-0.41,0.42-1.15,0.92-2.21,1.51l-1.2,0.67c-0.57,0.32-1.03,0.62-1.35,0.91c-0.59,0.51-0.96,1.08-1.11,1.7h6.87v1.49h-8.64
		C291.74,440.97,291.96,440.03,292.35,439.23z"/>
</g>
<g>
	<path d="M309.2,433.85l0.86,0.84l-3.14,3.12l3.14,3.11l-0.86,0.86l-3.12-3.13l-3.13,3.13l-0.86-0.86l3.13-3.11l-3.13-3.12
		l0.86-0.86l3.13,3.11L309.2,433.85z"/>
</g>
<g>
	<path d="M312.73,433.14v-1.21c1.14-0.11,1.94-0.3,2.39-0.56c0.45-0.26,0.79-0.88,1.01-1.85h1.25v12.53h-1.69v-8.91H312.73z"/>
	<path d="M329.42,431.48c0.56,1.04,0.84,2.46,0.84,4.26c0,1.71-0.25,3.13-0.76,4.25c-0.74,1.61-1.95,2.41-3.62,2.41
		c-1.51,0-2.64-0.66-3.38-1.97c-0.62-1.1-0.92-2.57-0.92-4.41c0-1.43,0.18-2.66,0.55-3.68c0.69-1.91,1.94-2.87,3.75-2.87
		C327.52,429.47,328.7,430.14,329.42,431.48z M327.83,439.87c0.49-0.73,0.73-2.08,0.73-4.06c0-1.43-0.18-2.61-0.53-3.53
		c-0.35-0.92-1.04-1.38-2.05-1.38c-0.93,0-1.62,0.44-2.05,1.31c-0.43,0.88-0.65,2.17-0.65,3.87c0,1.28,0.14,2.31,0.41,3.09
		c0.42,1.19,1.14,1.78,2.17,1.78C326.69,440.96,327.34,440.59,327.83,439.87z"/>
</g>
<g>
	<path d="M336.66,425.55v0.83c-0.24,0.24-0.56,0.64-0.97,1.23c-0.4,0.58-0.76,1.21-1.07,1.88c-0.31,0.66-0.54,1.25-0.7,1.79
		c-0.1,0.35-0.23,0.91-0.39,1.68h-1.05c0.24-1.44,0.76-2.87,1.58-4.29c0.48-0.83,0.99-1.56,1.52-2.16h-4.17v-0.95H336.66z"/>
</g>
<g>
	<path d="M445.36,441.17c-0.67-0.82-1.01-1.81-1.01-2.98H446c0.07,0.81,0.22,1.41,0.46,1.78c0.41,0.66,1.15,0.99,2.22,0.99
		c0.83,0,1.5-0.22,2-0.67s0.76-1.02,0.76-1.72c0-0.87-0.26-1.47-0.8-1.82c-0.53-0.35-1.27-0.52-2.21-0.52c-0.11,0-0.21,0-0.32,0
		c-0.11,0-0.22,0.01-0.33,0.01v-1.4c0.16,0.02,0.3,0.03,0.41,0.04s0.23,0.01,0.36,0.01c0.59,0,1.08-0.09,1.46-0.28
		c0.67-0.33,1-0.91,1-1.76c0-0.63-0.22-1.11-0.67-1.45s-0.96-0.51-1.56-0.51c-1.05,0-1.78,0.35-2.19,1.05
		c-0.22,0.39-0.35,0.94-0.38,1.65h-1.56c0-0.94,0.19-1.73,0.56-2.39c0.64-1.17,1.78-1.76,3.4-1.76c1.28,0,2.28,0.29,2.98,0.86
		c0.7,0.57,1.05,1.4,1.05,2.48c0,0.77-0.21,1.4-0.62,1.88c-0.26,0.3-0.59,0.53-1,0.7c0.66,0.18,1.18,0.53,1.55,1.05
		c0.37,0.52,0.56,1.15,0.56,1.9c0,1.2-0.4,2.18-1.19,2.94s-1.91,1.13-3.37,1.13C447.11,442.4,446.03,441.99,445.36,441.17z"/>
</g>
<g>
	<path d="M462,433.85l0.86,0.84l-3.14,3.12l3.14,3.11l-0.86,0.86l-3.12-3.13l-3.13,3.13l-0.86-0.86l3.13-3.11l-3.13-3.12l0.86-0.86
		l3.13,3.11L462,433.85z"/>
</g>
<g>
	<path d="M465.53,433.14v-1.21c1.14-0.11,1.94-0.3,2.39-0.56c0.45-0.26,0.79-0.88,1.01-1.85h1.25v12.53h-1.69v-8.91H465.53z"/>
	<path d="M482.22,431.48c0.56,1.04,0.84,2.46,0.84,4.26c0,1.71-0.25,3.13-0.76,4.25c-0.74,1.61-1.95,2.41-3.62,2.41
		c-1.51,0-2.64-0.66-3.38-1.97c-0.62-1.1-0.92-2.57-0.92-4.41c0-1.43,0.18-2.66,0.55-3.68c0.69-1.91,1.94-2.87,3.75-2.87
		C480.32,429.47,481.5,430.14,482.22,431.48z M480.63,439.87c0.49-0.73,0.73-2.08,0.73-4.06c0-1.43-0.18-2.61-0.53-3.53
		c-0.35-0.92-1.04-1.38-2.05-1.38c-0.93,0-1.62,0.44-2.05,1.31s-0.65,2.17-0.65,3.87c0,1.28,0.14,2.31,0.41,3.09
		c0.42,1.19,1.14,1.78,2.17,1.78C479.49,440.96,480.14,440.59,480.63,439.87z"/>
</g>
<g>
	<path d="M489.46,425.55v0.83c-0.24,0.24-0.56,0.64-0.97,1.23c-0.4,0.58-0.76,1.21-1.07,1.88c-0.31,0.66-0.54,1.25-0.7,1.79
		c-0.1,0.35-0.23,0.91-0.39,1.68h-1.05c0.24-1.44,0.76-2.87,1.58-4.29c0.48-0.83,0.99-1.56,1.52-2.16h-4.17v-0.95H489.46z"/>
</g>
<g>
	<path d="M602.6,442.06v-3.08h-5.52v-1.55l5.77-8h1.34v8.17h1.85v1.38h-1.85v3.08H602.6z M602.57,437.6v-5.72l-4.03,5.72H602.57z"/>
</g>
<g>
	<path d="M614.7,433.85l0.86,0.84l-3.14,3.12l3.14,3.11l-0.86,0.86l-3.12-3.13l-3.13,3.13l-0.86-0.86l3.13-3.11l-3.13-3.12
		l0.86-0.86l3.13,3.11L614.7,433.85z"/>
</g>
<g>
	<path d="M618.23,433.14v-1.21c1.14-0.11,1.94-0.3,2.39-0.56c0.45-0.26,0.79-0.88,1.01-1.85h1.25v12.53h-1.69v-8.91H618.23z"/>
	<path d="M634.92,431.48c0.56,1.04,0.84,2.46,0.84,4.26c0,1.71-0.26,3.13-0.77,4.25c-0.74,1.61-1.95,2.41-3.62,2.41
		c-1.51,0-2.64-0.66-3.38-1.97c-0.62-1.1-0.92-2.57-0.92-4.41c0-1.43,0.18-2.66,0.55-3.68c0.69-1.91,1.94-2.87,3.75-2.87
		C633.02,429.47,634.2,430.14,634.92,431.48z M633.33,439.87c0.49-0.73,0.73-2.08,0.73-4.06c0-1.43-0.18-2.61-0.53-3.53
		c-0.35-0.92-1.04-1.38-2.05-1.38c-0.93,0-1.62,0.44-2.05,1.31s-0.65,2.17-0.65,3.87c0,1.28,0.14,2.31,0.41,3.09
		c0.42,1.19,1.14,1.78,2.17,1.78C632.19,440.96,632.84,440.59,633.33,439.87z"/>
</g>
<g>
	<path d="M642.16,425.55v0.83c-0.24,0.24-0.56,0.64-0.97,1.23c-0.4,0.58-0.76,1.21-1.07,1.88c-0.31,0.66-0.54,1.25-0.7,1.79
		c-0.1,0.35-0.23,0.91-0.39,1.68h-1.05c0.24-1.44,0.76-2.87,1.58-4.29c0.48-0.83,0.99-1.56,1.52-2.16h-4.17v-0.95H642.16z"/>
</g>
<path class="st0" d="M82.22,18.2h534.6 M82.22,18.2v18 M97.49,18.2v9 M112.77,18.2v9 M128.04,18.2v9 M143.32,18.2v9 M158.59,18.2v18
	 M173.87,18.2v9 M189.14,18.2v9 M204.41,18.2v9 M219.69,18.2v9 M234.96,18.2v18 M250.24,18.2v9 M265.51,18.2v9 M280.79,18.2v9
	 M296.06,18.2v9 M311.33,18.2v18 M326.61,18.2v9 M341.88,18.2v9 M357.16,18.2v9 M372.43,18.2v9 M387.71,18.2v18 M402.98,18.2v9
	 M418.25,18.2v9 M433.53,18.2v9 M448.8,18.2v9 M464.08,18.2v18 M479.35,18.2v9 M494.63,18.2v9 M509.9,18.2v9 M525.17,18.2v9
	 M540.45,18.2v18 M555.72,18.2v9 M571,18.2v9 M586.27,18.2v9 M601.55,18.2v9 M616.82,18.2v18 M82.22,411.8V18.2 M82.22,411.8h9
	 M82.22,411.8h18 M82.22,396.99h9 M82.22,388.33h9 M82.22,382.18h9 M82.22,377.41h9 M82.22,373.51h9 M82.22,370.22h9 M82.22,367.37
	h9 M82.22,364.85h9 M82.22,362.6h9 M82.22,362.6h18 M82.22,347.79h9 M82.22,339.13h9 M82.22,332.98h9 M82.22,328.21h9 M82.22,324.31
	h9 M82.22,321.02h9 M82.22,318.17h9 M82.22,315.65h9 M82.22,313.4h9 M82.22,313.4h18 M82.22,298.59h9 M82.22,289.93h9 M82.22,283.78
	h9 M82.22,279.01h9 M82.22,275.11h9 M82.22,271.82h9 M82.22,268.97h9 M82.22,266.45h9 M82.22,264.2h9 M82.22,264.2h18 M82.22,249.39
	h9 M82.22,240.73h9 M82.22,234.58h9 M82.22,229.81h9 M82.22,225.91h9 M82.22,222.62h9 M82.22,219.77h9 M82.22,217.25h9 M82.22,215h9
	 M82.22,215h18 M82.22,200.19h9 M82.22,191.53h9 M82.22,185.38h9 M82.22,180.61h9 M82.22,176.72h9 M82.22,173.42h9 M82.22,170.57h9
	 M82.22,168.05h9 M82.22,165.8h9 M82.22,165.8h18 M82.22,150.99h9 M82.22,142.33h9 M82.22,136.18h9 M82.22,131.41h9 M82.22,127.52h9
	 M82.22,124.22h9 M82.22,121.37h9 M82.22,118.85h9 M82.22,116.6h9 M82.22,116.6h18 M82.22,101.79h9 M82.22,93.13h9 M82.22,86.98h9
	 M82.22,82.21h9 M82.22,78.32h9 M82.22,75.02h9 M82.22,72.17h9 M82.22,69.65h9 M82.22,67.4h9 M82.22,67.4h18 M82.22,52.59h9
	 M82.22,43.93h9 M82.22,37.78h9 M82.22,33.01h9 M82.22,29.12h9 M82.22,25.82h9 M82.22,22.97h9 M82.22,20.45h9 M82.22,18.2h9
	 M82.22,18.2h18"/>
<g>
	<path d="M43.99,407.85v-1.21c1.14-0.11,1.94-0.3,2.39-0.56c0.45-0.26,0.79-0.88,1.01-1.85h1.25v12.53h-1.69v-8.91H43.99z"/>
	<path d="M60.68,406.19c0.56,1.04,0.84,2.46,0.84,4.26c0,1.71-0.25,3.13-0.76,4.25c-0.74,1.61-1.95,2.41-3.62,2.41
		c-1.51,0-2.64-0.66-3.38-1.97c-0.62-1.1-0.92-2.57-0.92-4.41c0-1.43,0.18-2.66,0.55-3.68c0.69-1.91,1.94-2.87,3.75-2.87
		C58.78,404.17,59.96,404.84,60.68,406.19z M59.09,414.57c0.49-0.73,0.73-2.08,0.73-4.06c0-1.43-0.18-2.61-0.53-3.53
		c-0.35-0.92-1.04-1.38-2.05-1.38c-0.93,0-1.62,0.44-2.05,1.31c-0.43,0.88-0.65,2.17-0.65,3.87c0,1.28,0.14,2.31,0.41,3.09
		c0.42,1.19,1.14,1.78,2.17,1.78C57.95,415.66,58.61,415.3,59.09,414.57z"/>
</g>
<g>
	<path d="M62.73,404.17h2.64v0.97h-2.64V404.17z"/>
	<path d="M66.61,405.97c0.23-0.48,0.69-0.92,1.37-1.31l1.01-0.58c0.45-0.26,0.77-0.49,0.95-0.67c0.29-0.29,0.43-0.63,0.43-1
		c0-0.44-0.13-0.79-0.4-1.05c-0.26-0.26-0.61-0.39-1.05-0.39c-0.65,0-1.1,0.25-1.35,0.74c-0.13,0.26-0.21,0.63-0.22,1.1H66.4
		c0.01-0.66,0.13-1.19,0.36-1.61c0.41-0.73,1.13-1.1,2.17-1.1c0.86,0,1.49,0.23,1.89,0.7s0.6,0.99,0.6,1.56
		c0,0.6-0.21,1.12-0.64,1.55c-0.25,0.25-0.69,0.55-1.32,0.91l-0.72,0.4c-0.34,0.19-0.61,0.37-0.81,0.54
		c-0.35,0.31-0.57,0.64-0.66,1.02h4.12v0.89h-5.17C66.25,407.01,66.38,406.45,66.61,405.97z"/>
</g>
<g>
	<path d="M47.58,309.45v-1.21c1.14-0.11,1.94-0.3,2.39-0.56c0.45-0.26,0.79-0.88,1.01-1.85h1.25v12.53h-1.69v-8.91H47.58z"/>
	<path d="M64.27,307.79c0.56,1.04,0.84,2.46,0.84,4.26c0,1.71-0.25,3.13-0.76,4.25c-0.74,1.61-1.95,2.41-3.62,2.41
		c-1.51,0-2.64-0.66-3.38-1.97c-0.62-1.1-0.92-2.57-0.92-4.41c0-1.43,0.18-2.66,0.55-3.68c0.69-1.91,1.94-2.87,3.75-2.87
		C62.37,305.77,63.55,306.45,64.27,307.79z M62.68,316.17c0.49-0.73,0.73-2.08,0.73-4.06c0-1.43-0.18-2.61-0.53-3.53
		c-0.35-0.92-1.04-1.38-2.05-1.38c-0.93,0-1.62,0.44-2.05,1.31c-0.43,0.88-0.65,2.17-0.65,3.87c0,1.28,0.14,2.31,0.41,3.09
		c0.42,1.19,1.14,1.78,2.17,1.78C61.54,317.26,62.19,316.9,62.68,316.17z"/>
</g>
<g>
	<path d="M70.91,302.93c0.34,0.62,0.51,1.47,0.51,2.55c0,1.02-0.15,1.87-0.46,2.54c-0.44,0.96-1.17,1.44-2.17,1.44
		c-0.9,0-1.58-0.39-2.02-1.18c-0.37-0.66-0.55-1.54-0.55-2.64c0-0.86,0.11-1.59,0.33-2.21c0.41-1.14,1.16-1.71,2.25-1.71
		C69.77,301.72,70.47,302.13,70.91,302.93z M69.95,307.95c0.29-0.43,0.44-1.25,0.44-2.43c0-0.86-0.11-1.56-0.32-2.11
		s-0.62-0.83-1.23-0.83c-0.56,0-0.97,0.26-1.23,0.79c-0.26,0.53-0.39,1.3-0.39,2.32c0,0.77,0.08,1.39,0.25,1.85
		c0.25,0.71,0.69,1.07,1.3,1.07C69.27,308.6,69.66,308.38,69.95,307.95z"/>
</g>
<g>
	<path d="M47.58,211.05v-1.21c1.14-0.11,1.94-0.3,2.39-0.56c0.45-0.26,0.79-0.88,1.01-1.85h1.25v12.53h-1.69v-8.91H47.58z"/>
	<path d="M64.27,209.39c0.56,1.04,0.84,2.46,0.84,4.26c0,1.71-0.25,3.13-0.76,4.25c-0.74,1.61-1.95,2.41-3.62,2.41
		c-1.51,0-2.64-0.66-3.38-1.97c-0.62-1.1-0.92-2.57-0.92-4.41c0-1.43,0.18-2.66,0.55-3.68c0.69-1.91,1.94-2.87,3.75-2.87
		C62.37,207.37,63.55,208.04,64.27,209.39z M62.68,217.77c0.49-0.73,0.73-2.08,0.73-4.06c0-1.43-0.18-2.61-0.53-3.53
		c-0.35-0.92-1.04-1.38-2.05-1.38c-0.93,0-1.62,0.44-2.05,1.31c-0.43,0.88-0.65,2.17-0.65,3.87c0,1.28,0.14,2.31,0.41,3.09
		c0.42,1.19,1.14,1.78,2.17,1.78C61.54,218.86,62.19,218.5,62.68,217.77z"/>
</g>
<g>
	<path d="M66.61,209.17c0.23-0.48,0.69-0.92,1.37-1.31l1.01-0.58c0.45-0.26,0.77-0.49,0.95-0.67c0.29-0.29,0.43-0.63,0.43-1
		c0-0.44-0.13-0.79-0.4-1.05s-0.61-0.39-1.05-0.39c-0.65,0-1.1,0.25-1.35,0.74c-0.13,0.26-0.21,0.63-0.22,1.1H66.4
		c0.01-0.66,0.13-1.19,0.36-1.61c0.41-0.73,1.13-1.09,2.17-1.09c0.86,0,1.49,0.23,1.89,0.7s0.6,0.99,0.6,1.56
		c0,0.6-0.21,1.12-0.64,1.55c-0.25,0.25-0.69,0.55-1.32,0.91l-0.72,0.4c-0.34,0.19-0.61,0.37-0.81,0.54
		c-0.35,0.31-0.57,0.64-0.66,1.02h4.12v0.89h-5.17C66.25,210.21,66.38,209.65,66.61,209.17z"/>
</g>
<g>
	<path d="M47.58,112.65v-1.21c1.14-0.11,1.94-0.3,2.39-0.56c0.45-0.26,0.79-0.88,1.01-1.85h1.25v12.53h-1.69v-8.91H47.58z"/>
	<path d="M64.27,110.99c0.56,1.04,0.84,2.46,0.84,4.26c0,1.71-0.25,3.13-0.76,4.25c-0.74,1.61-1.95,2.41-3.62,2.41
		c-1.51,0-2.64-0.66-3.38-1.97c-0.62-1.1-0.92-2.57-0.92-4.41c0-1.43,0.18-2.66,0.55-3.68c0.69-1.91,1.94-2.87,3.75-2.87
		C62.37,108.97,63.55,109.64,64.27,110.99z M62.68,119.37c0.49-0.73,0.73-2.08,0.73-4.06c0-1.43-0.18-2.61-0.53-3.53
		c-0.35-0.92-1.04-1.38-2.05-1.38c-0.93,0-1.62,0.44-2.05,1.31c-0.43,0.88-0.65,2.17-0.65,3.87c0,1.28,0.14,2.31,0.41,3.09
		c0.42,1.19,1.14,1.78,2.17,1.78C61.54,120.46,62.19,120.1,62.68,119.37z"/>
</g>
<g>
	<path d="M69.45,112.46v-1.84h-3.31v-0.93l3.45-4.79h0.8v4.89h1.11v0.83H70.4v1.84H69.45z M69.44,109.79v-3.42l-2.42,3.42H69.44z"/>
</g>
<g>
	<path d="M47.58,14.25v-1.21c1.14-0.11,1.94-0.3,2.39-0.56c0.45-0.26,0.79-0.88,1.01-1.85h1.25v12.53h-1.69v-8.91H47.58z"/>
	<path d="M64.27,12.59c0.56,1.04,0.84,2.46,0.84,4.26c0,1.71-0.25,3.13-0.76,4.25c-0.74,1.61-1.95,2.41-3.62,2.41
		c-1.51,0-2.64-0.66-3.38-1.97c-0.62-1.1-0.92-2.57-0.92-4.41c0-1.43,0.18-2.66,0.55-3.68c0.69-1.91,1.94-2.87,3.75-2.87
		C62.37,10.58,63.55,11.25,64.27,12.59z M62.68,20.97c0.49-0.73,0.73-2.08,0.73-4.06c0-1.43-0.18-2.61-0.53-3.53
		C62.53,12.46,61.85,12,60.83,12c-0.93,0-1.62,0.44-2.05,1.31c-0.43,0.88-0.65,2.17-0.65,3.87c0,1.28,0.14,2.31,0.41,3.09
		c0.42,1.19,1.14,1.78,2.17,1.78C61.54,22.06,62.19,21.7,62.68,20.97z"/>
</g>
<g>
	<path d="M70.79,7.15c0.33,0.44,0.5,0.89,0.5,1.35h-0.94c-0.06-0.3-0.15-0.53-0.27-0.7c-0.23-0.32-0.57-0.47-1.04-0.47
		c-0.53,0-0.95,0.24-1.26,0.73c-0.31,0.49-0.49,1.19-0.52,2.1c0.22-0.32,0.49-0.56,0.82-0.72c0.3-0.14,0.64-0.21,1.01-0.21
		c0.63,0,1.18,0.2,1.65,0.61s0.71,1,0.71,1.8c0,0.68-0.22,1.29-0.67,1.82c-0.45,0.53-1.08,0.79-1.91,0.79
		c-0.71,0-1.31-0.27-1.83-0.8c-0.51-0.54-0.77-1.44-0.77-2.7c0-0.94,0.11-1.73,0.34-2.38c0.44-1.25,1.24-1.87,2.4-1.87
		C69.87,6.49,70.46,6.71,70.79,7.15z M70.08,12.91c0.25-0.33,0.37-0.73,0.37-1.19c0-0.39-0.11-0.75-0.33-1.1
		c-0.22-0.35-0.62-0.52-1.21-0.52c-0.41,0-0.76,0.13-1.07,0.41c-0.31,0.27-0.46,0.68-0.46,1.22c0,0.48,0.14,0.88,0.42,1.2
		c0.28,0.32,0.67,0.49,1.16,0.49C69.46,13.41,69.83,13.25,70.08,12.91z"/>
</g>
<path class="st0" d="M616.82,411.8V18.2 M616.82,411.8h-9 M616.82,411.8h-18 M616.82,396.99h-9 M616.82,388.33h-9 M616.82,382.18h-9
	 M616.82,377.41h-9 M616.82,373.51h-9 M616.82,370.22h-9 M616.82,367.37h-9 M616.82,364.85h-9 M616.82,362.6h-9 M616.82,362.6h-18
	 M616.82,347.79h-9 M616.82,339.13h-9 M616.82,332.98h-9 M616.82,328.21h-9 M616.82,324.31h-9 M616.82,321.02h-9 M616.82,318.17h-9
	 M616.82,315.65h-9 M616.82,313.4h-9 M616.82,313.4h-18 M616.82,298.59h-9 M616.82,289.93h-9 M616.82,283.78h-9 M616.82,279.01h-9
	 M616.82,275.11h-9 M616.82,271.82h-9 M616.82,268.97h-9 M616.82,266.45h-9 M616.82,264.2h-9 M616.82,264.2h-18 M616.82,249.39h-9
	 M616.82,240.73h-9 M616.82,234.58h-9 M616.82,229.81h-9 M616.82,225.91h-9 M616.82,222.62h-9 M616.82,219.77h-9 M616.82,217.25h-9
	 M616.82,215h-9 M616.82,215h-18 M616.82,200.19h-9 M616.82,191.53h-9 M616.82,185.38h-9 M616.82,180.61h-9 M616.82,176.72h-9
	 M616.82,173.42h-9 M616.82,170.57h-9 M616.82,168.05h-9 M616.82,165.8h-9 M616.82,165.8h-18 M616.82,150.99h-9 M616.82,142.33h-9
	 M616.82,136.18h-9 M616.82,131.41h-9 M616.82,127.52h-9 M616.82,124.22h-9 M616.82,121.37h-9 M616.82,118.85h-9 M616.82,116.6h-9
	 M616.82,116.6h-18 M616.82,101.79h-9 M616.82,93.13h-9 M616.82,86.98h-9 M616.82,82.21h-9 M616.82,78.32h-9 M616.82,75.02h-9
	 M616.82,72.17h-9 M616.82,69.65h-9 M616.82,67.4h-9 M616.82,67.4h-18 M616.82,52.59h-9 M616.82,43.93h-9 M616.82,37.78h-9
	 M616.82,33.01h-9 M616.82,29.12h-9 M616.82,25.82h-9 M616.82,22.97h-9 M616.82,20.45h-9 M616.82,18.2h-9 M616.82,18.2h-18"/>
<g>
	<path d="M9.68,394.4v-11.71h1.98v9.58h4.9v-8.86h1.87v8.86h5.47v-9.75h1.92v11.88H9.68z"/>
	<path d="M14.05,379.87v-1.88h1.67c-0.69-0.56-1.18-1.15-1.48-1.77s-0.45-1.31-0.45-2.08c0-1.67,0.58-2.8,1.75-3.38
		c0.64-0.32,1.55-0.48,2.74-0.48h7.55v2.01H18.4c-0.72,0-1.3,0.11-1.74,0.32c-0.73,0.35-1.1,0.99-1.1,1.91
		c0,0.47,0.05,0.85,0.14,1.15c0.16,0.54,0.48,1.02,0.97,1.43c0.39,0.33,0.79,0.54,1.2,0.64c0.41,0.1,1,0.15,1.77,0.15h6.16v1.98
		H14.05z"/>
	<path d="M14.38,360.09c0.39-0.78,0.9-1.37,1.52-1.78c0.59-0.39,1.29-0.66,2.08-0.79c0.54-0.12,1.41-0.17,2.59-0.17v8.56
		c1.2-0.04,2.16-0.32,2.88-0.84c0.72-0.52,1.09-1.33,1.09-2.43c0-1.02-0.34-1.84-1.03-2.45c-0.4-0.34-0.86-0.58-1.38-0.73v-1.94
		c0.43,0.05,0.91,0.22,1.44,0.51c0.53,0.29,0.96,0.61,1.3,0.97c0.59,0.6,0.98,1.33,1.19,2.21c0.12,0.47,0.18,1.01,0.18,1.6
		c0,1.46-0.53,2.69-1.6,3.7c-1.07,1.01-2.56,1.52-4.48,1.52c-1.89,0-3.42-0.51-4.6-1.53s-1.77-2.35-1.77-4
		C13.79,361.67,13.99,360.87,14.38,360.09z M19,359.38c-0.86,0.08-1.54,0.27-2.05,0.56c-0.95,0.54-1.43,1.43-1.43,2.69
		c0,0.9,0.33,1.66,0.98,2.27c0.66,0.61,1.49,0.93,2.5,0.97V359.38z"/>
	<path d="M14.05,354.79v-1.88h2.03c-0.4-0.15-0.88-0.53-1.44-1.13c-0.57-0.6-0.85-1.29-0.85-2.08c0-0.04,0-0.1,0.01-0.19
		s0.02-0.24,0.04-0.45h2.09c-0.02,0.12-0.04,0.23-0.04,0.32c-0.01,0.1-0.01,0.21-0.01,0.32c0,1,0.32,1.76,0.96,2.3
		c0.64,0.53,1.38,0.8,2.21,0.8h6.77v1.98H14.05z"/>
	<path d="M14.53,340.81c0.26-0.37,0.63-0.75,1.12-1.14h-1.48v-1.82h10.7c1.49,0,2.67,0.22,3.54,0.66c1.6,0.82,2.39,2.36,2.39,4.63
		c0,1.26-0.28,2.32-0.85,3.19c-0.57,0.86-1.46,1.34-2.66,1.45v-2.01c0.53-0.09,0.93-0.28,1.22-0.57c0.44-0.44,0.66-1.14,0.66-2.1
		c0-1.51-0.53-2.49-1.6-2.96c-0.63-0.28-1.75-0.4-3.37-0.38c0.6,0.39,1.05,0.87,1.34,1.42c0.29,0.55,0.44,1.29,0.44,2.2
		c0,1.27-0.45,2.38-1.36,3.33c-0.9,0.95-2.4,1.43-4.49,1.43c-1.97,0-3.51-0.48-4.61-1.44c-1.11-0.96-1.66-2.12-1.66-3.47
		C13.85,342.3,14.07,341.49,14.53,340.81z M16.65,340.57c-0.7,0.6-1.05,1.36-1.05,2.28c0,1.38,0.65,2.33,1.96,2.84
		c0.7,0.27,1.61,0.4,2.74,0.4c1.33,0,2.33-0.27,3.03-0.8c0.69-0.54,1.04-1.25,1.04-2.16c0-1.41-0.64-2.41-1.92-2.98
		c-0.73-0.32-1.57-0.48-2.54-0.48C18.43,339.67,17.35,339.97,16.65,340.57z"/>
	<path d="M14.05,327.48v-2.19c0.75,0.28,2.48,0.9,5.17,1.86c2.02,0.72,3.67,1.32,4.95,1.8c3,1.14,4.83,1.95,5.49,2.41
		c0.66,0.47,0.99,1.27,0.99,2.42c0,0.28-0.01,0.49-0.03,0.64c-0.02,0.15-0.06,0.34-0.12,0.55h-1.8c0.1-0.34,0.15-0.59,0.18-0.75
		c0.02-0.15,0.03-0.29,0.03-0.41c0-0.37-0.06-0.63-0.18-0.81s-0.27-0.32-0.44-0.43c-0.06-0.04-0.36-0.17-0.9-0.39
		c-0.54-0.23-0.94-0.39-1.21-0.49l-12.11,4.35v-2.24l9.58-3.15L14.05,327.48z"/>
	<path d="M10.14,306.33c0.84-1.58,2.32-2.55,4.43-2.9v2.17c-1.18,0.26-2.04,0.79-2.58,1.6c-0.54,0.81-0.81,1.83-0.81,3.07
		c0,1.46,0.56,2.7,1.68,3.7c1.12,1,2.79,1.5,5.01,1.5c1.92,0,3.48-0.41,4.69-1.24c1.2-0.83,1.81-2.17,1.81-4.04
		c0-1.43-0.42-2.61-1.27-3.55c-0.85-0.94-2.21-1.42-4.1-1.44v5.05h-1.81v-7.09h8.64v1.41l-2.08,0.53c0.81,0.73,1.38,1.37,1.69,1.94
		c0.54,0.94,0.81,2.14,0.81,3.6c0,1.88-0.62,3.5-1.86,4.85c-1.55,1.48-3.68,2.21-6.39,2.21c-2.7,0-4.85-0.72-6.45-2.17
		c-1.52-1.37-2.29-3.15-2.29-5.33C9.26,308.71,9.56,307.42,10.14,306.33z"/>
	<path d="M14.38,292.57c0.39-0.78,0.9-1.37,1.52-1.78c0.59-0.39,1.29-0.66,2.08-0.79c0.54-0.12,1.41-0.17,2.59-0.17v8.56
		c1.2-0.04,2.16-0.32,2.88-0.84c0.72-0.52,1.09-1.33,1.09-2.43c0-1.02-0.34-1.84-1.03-2.45c-0.4-0.34-0.86-0.58-1.38-0.73v-1.94
		c0.43,0.05,0.91,0.22,1.44,0.51c0.53,0.29,0.96,0.61,1.3,0.97c0.59,0.6,0.98,1.33,1.19,2.21c0.12,0.47,0.18,1.01,0.18,1.6
		c0,1.46-0.53,2.69-1.6,3.7c-1.07,1.01-2.56,1.52-4.48,1.52c-1.89,0-3.42-0.51-4.6-1.53s-1.77-2.35-1.77-4
		C13.79,294.15,13.99,293.35,14.38,292.57z M19,291.86c-0.86,0.08-1.54,0.27-2.05,0.56c-0.95,0.54-1.43,1.43-1.43,2.69
		c0,0.9,0.33,1.66,0.98,2.27c0.66,0.61,1.49,0.93,2.5,0.97V291.86z"/>
	<path d="M14.05,287.32v-1.88h1.67c-0.69-0.56-1.18-1.15-1.48-1.77s-0.45-1.31-0.45-2.08c0-1.67,0.58-2.8,1.75-3.38
		c0.64-0.32,1.55-0.48,2.74-0.48h7.55v2.01H18.4c-0.72,0-1.3,0.11-1.74,0.32c-0.73,0.35-1.1,0.99-1.1,1.91
		c0,0.47,0.05,0.85,0.14,1.15c0.16,0.54,0.48,1.02,0.97,1.43c0.39,0.33,0.79,0.54,1.2,0.64c0.41,0.1,1,0.15,1.77,0.15h6.16v1.98
		H14.05z"/>
	<path d="M14.38,267.54c0.39-0.78,0.9-1.37,1.52-1.78c0.59-0.39,1.29-0.66,2.08-0.79c0.54-0.12,1.41-0.17,2.59-0.17v8.56
		c1.2-0.04,2.16-0.32,2.88-0.84c0.72-0.52,1.09-1.33,1.09-2.43c0-1.02-0.34-1.84-1.03-2.45c-0.4-0.34-0.86-0.58-1.38-0.73v-1.94
		c0.43,0.05,0.91,0.22,1.44,0.51c0.53,0.29,0.96,0.61,1.3,0.97c0.59,0.6,0.98,1.33,1.19,2.21c0.12,0.47,0.18,1.01,0.18,1.6
		c0,1.46-0.53,2.69-1.6,3.7c-1.07,1.01-2.56,1.52-4.48,1.52c-1.89,0-3.42-0.51-4.6-1.53s-1.77-2.35-1.77-4
		C13.79,269.12,13.99,268.32,14.38,267.54z M19,266.83c-0.86,0.08-1.54,0.27-2.05,0.56c-0.95,0.54-1.43,1.43-1.43,2.69
		c0,0.9,0.33,1.66,0.98,2.27c0.66,0.61,1.49,0.93,2.5,0.97V266.83z"/>
	<path d="M14.05,262.24v-1.88h2.03c-0.4-0.15-0.88-0.53-1.44-1.13c-0.57-0.6-0.85-1.29-0.85-2.08c0-0.04,0-0.1,0.01-0.19
		s0.02-0.24,0.04-0.45h2.09c-0.02,0.12-0.04,0.23-0.04,0.32c-0.01,0.1-0.01,0.21-0.01,0.32c0,1,0.32,1.76,0.96,2.3
		c0.64,0.53,1.38,0.8,2.21,0.8h6.77v1.98H14.05z"/>
	<path d="M18.7,248.49c-0.06-0.45-0.25-0.76-0.57-0.91c-0.18-0.09-0.43-0.13-0.76-0.13c-0.68,0-1.17,0.24-1.47,0.72
		c-0.31,0.48-0.46,1.16-0.46,2.06c0,1.03,0.28,1.76,0.84,2.19c0.31,0.24,0.77,0.4,1.38,0.47v1.85c-1.45-0.04-2.47-0.51-3.04-1.41
		c-0.57-0.9-0.85-1.95-0.85-3.14c0-1.38,0.26-2.51,0.79-3.37c0.53-0.86,1.35-1.28,2.46-1.28h6.78c0.21,0,0.37-0.04,0.49-0.13
		c0.12-0.08,0.19-0.26,0.19-0.53c0-0.09-0.01-0.19-0.02-0.3c-0.01-0.11-0.03-0.23-0.05-0.35h1.46c0.09,0.31,0.14,0.54,0.17,0.7
		s0.03,0.38,0.03,0.66c0,0.68-0.24,1.18-0.73,1.48c-0.26,0.16-0.62,0.27-1.09,0.34c0.53,0.4,0.98,0.98,1.37,1.74
		c0.39,0.75,0.58,1.59,0.58,2.49c0,1.09-0.33,1.98-0.99,2.67c-0.66,0.69-1.49,1.04-2.49,1.04c-1.09,0-1.93-0.34-2.53-1.02
		c-0.6-0.68-0.97-1.57-1.11-2.68L18.7,248.49z M24.04,252.66c0.33-0.42,0.49-0.91,0.49-1.48c0-0.7-0.16-1.37-0.48-2.02
		c-0.53-1.1-1.41-1.65-2.62-1.65h-1.59c0.15,0.24,0.28,0.55,0.39,0.93c0.1,0.38,0.18,0.75,0.22,1.12l0.15,1.2
		c0.1,0.72,0.25,1.25,0.45,1.62c0.34,0.61,0.89,0.92,1.64,0.92C23.26,253.28,23.71,253.08,24.04,252.66z"/>
	<path d="M10.77,241.89v-2h3.28v-1.88h1.62v1.88h7.68c0.41,0,0.68-0.14,0.82-0.42c0.08-0.15,0.12-0.41,0.12-0.77
		c0-0.1,0-0.2-0.01-0.31s-0.02-0.24-0.04-0.38h1.57c0.07,0.23,0.11,0.46,0.14,0.71c0.03,0.25,0.04,0.51,0.04,0.8
		c0,0.92-0.24,1.55-0.71,1.88c-0.47,0.33-1.09,0.49-1.84,0.49h-7.79v1.59h-1.62v-1.59H10.77z"/>
	<path d="M9.68,236.04v-2.01h2.24v2.01H9.68z M14.11,236.04v-2.01h11.71v2.01H14.11z"/>
	<path d="M15.23,222.51c1.01-1.04,2.5-1.56,4.46-1.56c1.9,0,3.46,0.46,4.7,1.37c1.24,0.92,1.85,2.34,1.85,4.27
		c0,1.61-0.55,2.88-1.64,3.83c-1.09,0.95-2.56,1.42-4.41,1.42c-1.98,0-3.55-0.5-4.72-1.49c-1.17-1-1.76-2.33-1.76-4.01
		C13.71,224.82,14.22,223.55,15.23,222.51z M23.05,223.74c-0.99-0.48-2.09-0.72-3.31-0.72c-1.1,0-1.99,0.17-2.68,0.52
		c-1.08,0.55-1.62,1.5-1.62,2.85c0,1.2,0.46,2.06,1.38,2.61c0.92,0.54,2.03,0.81,3.34,0.81c1.25,0,2.29-0.27,3.13-0.81
		c0.83-0.54,1.25-1.4,1.25-2.59C24.54,225.11,24.04,224.22,23.05,223.74z"/>
	<path d="M14.05,218.52v-1.88h1.67c-0.69-0.56-1.18-1.15-1.48-1.77s-0.45-1.31-0.45-2.08c0-1.67,0.58-2.8,1.75-3.38
		c0.64-0.32,1.55-0.48,2.74-0.48h7.55v2.01H18.4c-0.72,0-1.3,0.11-1.74,0.32c-0.73,0.35-1.1,0.99-1.1,1.91
		c0,0.47,0.05,0.85,0.14,1.15c0.16,0.54,0.48,1.02,0.97,1.43c0.39,0.33,0.79,0.54,1.2,0.64c0.41,0.1,1,0.15,1.77,0.15h6.16v1.98
		H14.05z"/>
	<path d="M9.68,199.23v-7.34c0-1.21,0.18-2.2,0.54-2.99c0.69-1.49,1.96-2.23,3.81-2.23c0.97,0,1.76,0.2,2.37,0.6
		c0.62,0.4,1.11,0.96,1.48,1.68c0.26-0.63,0.59-1.1,1.01-1.42c0.42-0.32,1.1-0.5,2.03-0.53l2.16-0.08c0.62-0.02,1.07-0.07,1.37-0.15
		c0.51-0.13,0.84-0.37,0.99-0.7h0.36v2.68c-0.14,0.07-0.32,0.13-0.54,0.18s-0.64,0.08-1.27,0.11l-2.69,0.13
		c-1.05,0.05-1.76,0.43-2.12,1.14c-0.2,0.41-0.3,1.04-0.3,1.91v4.83h6.92v2.19H9.68z M17.08,192.13c0-1-0.21-1.79-0.62-2.37
		s-1.15-0.87-2.22-0.87c-1.15,0-1.93,0.41-2.35,1.22c-0.22,0.43-0.33,1.02-0.33,1.74v5.19h5.52V192.13z"/>
	<path d="M18.7,177.2c-0.06-0.45-0.25-0.76-0.57-0.91c-0.18-0.09-0.43-0.13-0.76-0.13c-0.68,0-1.17,0.24-1.47,0.72
		c-0.31,0.48-0.46,1.16-0.46,2.06c0,1.03,0.28,1.76,0.84,2.19c0.31,0.24,0.77,0.4,1.38,0.47v1.85c-1.45-0.04-2.47-0.51-3.04-1.41
		c-0.57-0.9-0.85-1.95-0.85-3.14c0-1.38,0.26-2.51,0.79-3.37c0.53-0.86,1.35-1.28,2.46-1.28h6.78c0.21,0,0.37-0.04,0.49-0.13
		c0.12-0.08,0.19-0.26,0.19-0.53c0-0.09-0.01-0.19-0.02-0.3c-0.01-0.11-0.03-0.23-0.05-0.35h1.46c0.09,0.31,0.14,0.54,0.17,0.7
		c0.02,0.16,0.03,0.38,0.03,0.66c0,0.68-0.24,1.18-0.73,1.48c-0.26,0.16-0.62,0.27-1.09,0.34c0.53,0.4,0.98,0.98,1.37,1.74
		c0.39,0.75,0.58,1.59,0.58,2.49c0,1.09-0.33,1.98-0.99,2.68c-0.66,0.69-1.49,1.04-2.49,1.04c-1.09,0-1.93-0.34-2.53-1.02
		c-0.6-0.68-0.97-1.57-1.11-2.68L18.7,177.2z M24.04,181.37c0.33-0.42,0.49-0.91,0.49-1.48c0-0.7-0.16-1.37-0.48-2.02
		c-0.53-1.1-1.41-1.65-2.62-1.65h-1.59c0.15,0.24,0.28,0.55,0.39,0.93c0.1,0.38,0.18,0.75,0.22,1.12l0.15,1.2
		c0.1,0.72,0.25,1.25,0.45,1.62c0.34,0.61,0.89,0.92,1.64,0.92C23.26,181.99,23.71,181.79,24.04,181.37z"/>
	<path d="M10.77,170.6v-2h3.28v-1.88h1.62v1.88h7.68c0.41,0,0.68-0.14,0.82-0.42c0.08-0.15,0.12-0.41,0.12-0.77
		c0-0.1,0-0.2-0.01-0.31s-0.02-0.24-0.04-0.38h1.57c0.07,0.23,0.11,0.46,0.14,0.71c0.03,0.25,0.04,0.51,0.04,0.8
		c0,0.92-0.24,1.55-0.71,1.88c-0.47,0.33-1.09,0.49-1.84,0.49h-7.79v1.59h-1.62v-1.59H10.77z"/>
	<path d="M14.38,157.48c0.39-0.78,0.9-1.37,1.52-1.78c0.59-0.39,1.29-0.66,2.08-0.79c0.54-0.12,1.41-0.17,2.59-0.17v8.56
		c1.2-0.04,2.16-0.32,2.88-0.84c0.72-0.52,1.09-1.33,1.09-2.43c0-1.02-0.34-1.84-1.03-2.45c-0.4-0.34-0.86-0.58-1.38-0.73v-1.94
		c0.43,0.05,0.91,0.22,1.44,0.51c0.53,0.29,0.96,0.61,1.3,0.97c0.59,0.6,0.98,1.33,1.19,2.21c0.12,0.47,0.18,1.01,0.18,1.6
		c0,1.46-0.53,2.69-1.6,3.7c-1.07,1.01-2.56,1.52-4.48,1.52c-1.89,0-3.42-0.51-4.6-1.53s-1.77-2.35-1.77-4
		C13.79,159.06,13.99,158.26,14.38,157.48z M19,156.77c-0.86,0.08-1.54,0.27-2.05,0.56c-0.95,0.54-1.43,1.43-1.43,2.69
		c0,0.9,0.33,1.66,0.98,2.27c0.66,0.61,1.49,0.93,2.5,0.97V156.77z"/>
	<path d="M9.42,140.77c2.23,1.15,3.88,1.9,4.93,2.24c1.6,0.52,3.46,0.78,5.56,0.78c2.12,0,4.06-0.3,5.82-0.89
		c1.08-0.37,2.64-1.09,4.68-2.16v1.33c-1.67,1.07-2.74,1.73-3.2,1.99c-0.46,0.26-1.09,0.54-1.88,0.83c-1.08,0.41-2.24,0.7-3.47,0.86
		c-0.64,0.08-1.25,0.12-1.82,0.12c-2.17,0-4.1-0.34-5.79-1.02c-1.08-0.43-2.69-1.33-4.83-2.7V140.77z"/>
	<path d="M14.38,131.22c0.39-0.78,0.9-1.37,1.52-1.78c0.59-0.39,1.29-0.66,2.08-0.79c0.54-0.12,1.41-0.17,2.59-0.17v8.56
		c1.2-0.04,2.16-0.32,2.88-0.84c0.72-0.52,1.09-1.33,1.09-2.43c0-1.02-0.34-1.84-1.03-2.45c-0.4-0.34-0.86-0.58-1.38-0.73v-1.94
		c0.43,0.05,0.91,0.22,1.44,0.51c0.53,0.29,0.96,0.61,1.3,0.97c0.59,0.6,0.98,1.33,1.19,2.21c0.12,0.47,0.18,1.01,0.18,1.6
		c0,1.46-0.53,2.69-1.6,3.7c-1.07,1.01-2.56,1.52-4.48,1.52c-1.89,0-3.42-0.51-4.6-1.53s-1.77-2.35-1.77-4
		C13.79,132.8,13.99,132,14.38,131.22z M19,130.51c-0.86,0.08-1.54,0.26-2.05,0.56c-0.95,0.54-1.43,1.43-1.43,2.69
		c0,0.9,0.33,1.66,0.98,2.27c0.66,0.61,1.49,0.93,2.5,0.97V130.51z"/>
	<path d="M14.05,125.92v-1.88h2.03c-0.4-0.15-0.88-0.53-1.44-1.13c-0.57-0.6-0.85-1.29-0.85-2.08c0-0.04,0-0.1,0.01-0.19
		s0.02-0.24,0.04-0.45h2.09c-0.02,0.12-0.04,0.22-0.04,0.32c-0.01,0.1-0.01,0.21-0.01,0.32c0,1,0.32,1.76,0.96,2.3
		c0.64,0.54,1.38,0.8,2.21,0.8h6.77v1.98H14.05z"/>
	<path d="M14.53,111.94c0.26-0.37,0.63-0.75,1.12-1.14h-1.48v-1.82h10.7c1.49,0,2.67,0.22,3.54,0.66c1.6,0.82,2.39,2.36,2.39,4.63
		c0,1.26-0.28,2.33-0.85,3.19c-0.57,0.86-1.46,1.34-2.66,1.45v-2.01c0.53-0.09,0.93-0.28,1.22-0.57c0.44-0.44,0.66-1.14,0.66-2.1
		c0-1.51-0.53-2.5-1.6-2.96c-0.63-0.28-1.75-0.4-3.37-0.38c0.6,0.39,1.05,0.87,1.34,1.42c0.29,0.55,0.44,1.29,0.44,2.2
		c0,1.27-0.45,2.38-1.36,3.33c-0.9,0.95-2.4,1.43-4.49,1.43c-1.97,0-3.51-0.48-4.61-1.44c-1.11-0.96-1.66-2.12-1.66-3.47
		C13.85,113.43,14.07,112.63,14.53,111.94z M16.65,111.7c-0.7,0.6-1.05,1.36-1.05,2.28c0,1.38,0.65,2.33,1.96,2.84
		c0.7,0.27,1.61,0.4,2.74,0.4c1.33,0,2.33-0.27,3.03-0.8c0.69-0.54,1.04-1.25,1.04-2.16c0-1.41-0.64-2.41-1.92-2.98
		c-0.73-0.32-1.57-0.48-2.54-0.48C18.43,110.8,17.35,111.1,16.65,111.7z"/>
	<path d="M9.68,102.29v-1.67l16.14,5.12v1.67L9.68,102.29z"/>
	<path d="M14.53,93.18c0.26-0.37,0.63-0.75,1.12-1.14h-1.48v-1.82h10.7c1.49,0,2.67,0.22,3.54,0.66c1.6,0.82,2.39,2.36,2.39,4.63
		c0,1.26-0.28,2.33-0.85,3.19c-0.57,0.86-1.46,1.34-2.66,1.45v-2.01c0.53-0.09,0.93-0.28,1.22-0.57c0.44-0.44,0.66-1.14,0.66-2.1
		c0-1.51-0.53-2.5-1.6-2.96c-0.63-0.28-1.75-0.4-3.37-0.38c0.6,0.39,1.05,0.87,1.34,1.42c0.29,0.55,0.44,1.29,0.44,2.2
		c0,1.27-0.45,2.38-1.36,3.33c-0.9,0.95-2.4,1.43-4.49,1.43c-1.97,0-3.51-0.48-4.61-1.44c-1.11-0.96-1.66-2.12-1.66-3.47
		C13.85,94.66,14.07,93.86,14.53,93.18z M16.65,92.93c-0.7,0.6-1.05,1.36-1.05,2.28c0,1.38,0.65,2.33,1.96,2.84
		c0.7,0.27,1.61,0.4,2.74,0.4c1.33,0,2.33-0.27,3.03-0.8c0.69-0.54,1.04-1.25,1.04-2.16c0-1.41-0.64-2.41-1.92-2.98
		c-0.73-0.32-1.57-0.48-2.54-0.48C18.43,92.04,17.35,92.34,16.65,92.93z"/>
	<path d="M9.68,83.53v-1.67l16.14,5.12v1.67L9.68,83.53z"/>
	<path d="M22.13,79.78c0.66-0.06,1.16-0.23,1.52-0.5c0.64-0.51,0.96-1.39,0.96-2.65c0-0.75-0.16-1.41-0.48-1.97
		c-0.32-0.57-0.81-0.85-1.48-0.85c-0.51,0-0.89,0.23-1.15,0.68c-0.16,0.29-0.35,0.86-0.56,1.72l-0.4,1.6
		c-0.25,1.02-0.53,1.77-0.83,2.26c-0.53,0.86-1.27,1.29-2.22,1.29c-1.11,0-2.01-0.41-2.7-1.22c-0.69-0.81-1.03-1.91-1.03-3.28
		c0-1.8,0.52-3.09,1.56-3.89c0.66-0.5,1.37-0.74,2.13-0.72v1.87c-0.44,0.04-0.85,0.2-1.21,0.48c-0.52,0.46-0.78,1.27-0.78,2.42
		c0,0.77,0.14,1.34,0.43,1.74c0.28,0.39,0.66,0.59,1.13,0.59c0.51,0,0.92-0.26,1.23-0.78c0.18-0.3,0.34-0.74,0.48-1.32l0.32-1.33
		c0.34-1.45,0.68-2.42,1-2.91c0.51-0.77,1.3-1.15,2.38-1.15c1.05,0,1.95,0.4,2.71,1.21c0.76,0.8,1.14,2.03,1.14,3.68
		c0,1.77-0.4,3.03-1.19,3.76c-0.79,0.74-1.78,1.13-2.95,1.19V79.78z"/>
	<path d="M14.38,62.43c0.39-0.78,0.9-1.37,1.52-1.78c0.59-0.39,1.29-0.66,2.08-0.79c0.54-0.12,1.41-0.17,2.59-0.17v8.56
		c1.2-0.04,2.16-0.32,2.88-0.84c0.72-0.52,1.09-1.33,1.09-2.43c0-1.02-0.34-1.84-1.03-2.45c-0.4-0.34-0.86-0.58-1.38-0.73v-1.94
		c0.43,0.05,0.91,0.22,1.44,0.51c0.53,0.29,0.96,0.61,1.3,0.97c0.59,0.6,0.98,1.33,1.19,2.21c0.12,0.47,0.18,1.01,0.18,1.6
		c0,1.46-0.53,2.69-1.6,3.7c-1.07,1.01-2.56,1.52-4.48,1.52c-1.89,0-3.42-0.51-4.6-1.53s-1.77-2.35-1.77-4
		C13.79,64.02,13.99,63.21,14.38,62.43z M19,61.73c-0.86,0.08-1.54,0.26-2.05,0.56c-0.95,0.54-1.43,1.43-1.43,2.69
		c0,0.9,0.33,1.66,0.98,2.27c0.66,0.61,1.49,0.93,2.5,0.97V61.73z"/>
	<path d="M14.68,49.42c0.64-0.83,1.75-1.33,3.33-1.5v1.92c-0.72,0.12-1.33,0.38-1.81,0.8c-0.48,0.42-0.72,1.09-0.72,2.01
		c0,1.26,0.61,2.16,1.84,2.7c0.8,0.35,1.78,0.53,2.95,0.53c1.18,0,2.17-0.25,2.97-0.75s1.21-1.28,1.21-2.35
		c0-0.82-0.25-1.47-0.75-1.95c-0.5-0.48-1.18-0.81-2.05-0.99v-1.92c1.56,0.22,2.7,0.77,3.42,1.65c0.72,0.88,1.08,2,1.08,3.37
		c0,1.54-0.56,2.77-1.69,3.68c-1.12,0.92-2.53,1.37-4.21,1.37c-2.07,0-3.67-0.5-4.82-1.5c-1.15-1-1.73-2.28-1.73-3.83
		C13.71,51.33,14.04,50.25,14.68,49.42z"/>
	<path d="M30.41,46.61c-2.27-1.16-3.93-1.92-4.97-2.25c-1.57-0.51-3.42-0.77-5.54-0.77s-4.05,0.3-5.81,0.89
		c-1.08,0.37-2.64,1.09-4.68,2.16v-1.33c1.8-1.13,2.91-1.81,3.33-2.05c0.42-0.24,1-0.5,1.74-0.78c0.92-0.35,1.82-0.6,2.71-0.75
		s1.75-0.23,2.58-0.23c2.17,0,4.1,0.34,5.8,1.03c1.09,0.43,2.7,1.33,4.82,2.69V46.61z"/>
</g>
<g>
	<path d="M287.6,462.85v1.92h-5.44v14.22h-2.21v-14.22h-5.44v-1.92H287.6z"/>
	<path d="M296.62,467.54c0.78,0.39,1.37,0.9,1.78,1.52c0.39,0.59,0.66,1.29,0.79,2.08c0.12,0.54,0.17,1.41,0.17,2.59h-8.56
		c0.04,1.2,0.32,2.16,0.84,2.88c0.52,0.72,1.33,1.09,2.43,1.09c1.02,0,1.84-0.34,2.45-1.03c0.34-0.4,0.58-0.86,0.73-1.38h1.94
		c-0.05,0.43-0.22,0.91-0.51,1.45c-0.29,0.53-0.61,0.96-0.97,1.3c-0.6,0.59-1.33,0.98-2.21,1.19c-0.47,0.12-1.01,0.18-1.6,0.18
		c-1.46,0-2.69-0.53-3.7-1.6c-1.01-1.06-1.52-2.56-1.52-4.48c0-1.89,0.51-3.42,1.53-4.6c1.02-1.18,2.35-1.77,4-1.77
		C295.03,466.96,295.84,467.15,296.62,467.54z M297.32,472.16c-0.08-0.86-0.26-1.54-0.56-2.05c-0.54-0.95-1.43-1.43-2.69-1.43
		c-0.9,0-1.66,0.33-2.27,0.98c-0.61,0.66-0.93,1.49-0.97,2.5H297.32z"/>
	<path d="M301.86,467.22h1.96v1.67c0.47-0.58,0.89-1,1.27-1.26c0.65-0.45,1.39-0.67,2.22-0.67c0.94,0,1.69,0.23,2.26,0.69
		c0.32,0.26,0.62,0.65,0.88,1.16c0.44-0.63,0.96-1.1,1.55-1.4c0.59-0.3,1.26-0.46,2-0.46c1.58,0,2.66,0.57,3.23,1.71
		c0.31,0.62,0.46,1.44,0.46,2.48v7.83h-2.05v-8.17c0-0.78-0.2-1.32-0.59-1.62c-0.39-0.29-0.87-0.44-1.43-0.44
		c-0.78,0-1.44,0.26-2,0.78c-0.56,0.52-0.84,1.39-0.84,2.6v6.84h-2.01v-7.68c0-0.8-0.1-1.38-0.29-1.75
		c-0.3-0.55-0.86-0.82-1.68-0.82c-0.75,0-1.43,0.29-2.04,0.87c-0.61,0.58-0.92,1.63-0.92,3.14v6.24h-1.98V467.22z"/>
	<path d="M320.44,467.28h1.93v1.56c0.4-0.53,0.83-0.95,1.3-1.24c0.67-0.44,1.45-0.66,2.36-0.66c1.34,0,2.47,0.51,3.4,1.53
		s1.4,2.48,1.4,4.38c0,2.56-0.67,4.39-2.02,5.49c-0.85,0.7-1.85,1.04-2.98,1.04c-0.89,0-1.64-0.19-2.24-0.58
		c-0.35-0.22-0.75-0.6-1.18-1.13v6.01h-1.98V467.28z M327.88,476.5c0.61-0.77,0.92-1.93,0.92-3.47c0-0.94-0.14-1.74-0.41-2.42
		c-0.51-1.3-1.46-1.95-2.82-1.95c-1.37,0-2.32,0.69-2.82,2.05c-0.27,0.73-0.41,1.66-0.41,2.79c0,0.91,0.14,1.68,0.41,2.32
		c0.51,1.22,1.46,1.82,2.82,1.82C326.49,477.66,327.27,477.27,327.88,476.5z"/>
	<path d="M340.38,467.54c0.78,0.39,1.37,0.9,1.78,1.52c0.39,0.59,0.66,1.29,0.79,2.08c0.12,0.54,0.17,1.41,0.17,2.59h-8.56
		c0.04,1.2,0.32,2.16,0.84,2.88c0.52,0.72,1.33,1.09,2.43,1.09c1.02,0,1.84-0.34,2.45-1.03c0.34-0.4,0.58-0.86,0.73-1.38h1.94
		c-0.05,0.43-0.22,0.91-0.51,1.45c-0.29,0.53-0.61,0.96-0.97,1.3c-0.6,0.59-1.33,0.98-2.21,1.19c-0.47,0.12-1.01,0.18-1.6,0.18
		c-1.46,0-2.69-0.53-3.7-1.6c-1.01-1.06-1.52-2.56-1.52-4.48c0-1.89,0.51-3.42,1.53-4.6c1.02-1.18,2.35-1.77,4-1.77
		C338.8,466.96,339.61,467.15,340.38,467.54z M341.09,472.16c-0.08-0.86-0.26-1.54-0.56-2.05c-0.54-0.95-1.43-1.43-2.69-1.43
		c-0.9,0-1.66,0.33-2.27,0.98c-0.61,0.66-0.93,1.49-0.97,2.5H341.09z"/>
	<path d="M345.69,467.22h1.88v2.03c0.15-0.39,0.53-0.88,1.13-1.44s1.29-0.85,2.08-0.85c0.04,0,0.1,0,0.19,0.01
		c0.09,0.01,0.24,0.02,0.45,0.04v2.09c-0.12-0.02-0.22-0.04-0.32-0.04c-0.1-0.01-0.21-0.01-0.32-0.01c-1,0-1.76,0.32-2.3,0.96
		c-0.54,0.64-0.8,1.38-0.8,2.21v6.77h-1.98V467.22z"/>
	<path d="M359.43,471.87c0.45-0.06,0.76-0.25,0.91-0.57c0.09-0.18,0.13-0.43,0.13-0.76c0-0.68-0.24-1.17-0.72-1.47
		c-0.48-0.31-1.16-0.46-2.06-0.46c-1.03,0-1.76,0.28-2.19,0.84c-0.24,0.31-0.4,0.77-0.47,1.38h-1.85c0.04-1.45,0.51-2.47,1.41-3.04
		c0.9-0.57,1.95-0.85,3.14-0.85c1.38,0,2.5,0.26,3.37,0.79c0.86,0.53,1.28,1.35,1.28,2.46v6.78c0,0.21,0.04,0.37,0.13,0.49
		c0.08,0.12,0.26,0.19,0.53,0.19c0.09,0,0.19-0.01,0.3-0.02c0.11-0.01,0.23-0.03,0.35-0.05v1.46c-0.31,0.09-0.54,0.14-0.7,0.17
		s-0.38,0.03-0.66,0.03c-0.68,0-1.18-0.24-1.48-0.73c-0.16-0.26-0.27-0.62-0.34-1.09c-0.4,0.53-0.98,0.99-1.74,1.37
		c-0.75,0.39-1.59,0.58-2.49,0.58c-1.09,0-1.98-0.33-2.67-0.99c-0.69-0.66-1.04-1.49-1.04-2.49c0-1.09,0.34-1.93,1.02-2.53
		c0.68-0.6,1.57-0.97,2.68-1.11L359.43,471.87z M355.27,477.21c0.42,0.33,0.91,0.49,1.48,0.49c0.7,0,1.37-0.16,2.02-0.48
		c1.1-0.53,1.65-1.41,1.65-2.62v-1.59c-0.24,0.15-0.55,0.28-0.93,0.39c-0.38,0.1-0.75,0.18-1.12,0.22l-1.19,0.15
		c-0.72,0.1-1.25,0.25-1.62,0.45c-0.61,0.34-0.92,0.89-0.92,1.64C354.64,476.43,354.85,476.88,355.27,477.21z"/>
	<path d="M366.03,463.94h2v3.28h1.88v1.62h-1.88v7.68c0,0.41,0.14,0.68,0.42,0.82c0.15,0.08,0.41,0.12,0.77,0.12
		c0.1,0,0.2,0,0.31-0.01c0.11,0,0.24-0.02,0.38-0.04v1.57c-0.23,0.07-0.46,0.11-0.71,0.14c-0.25,0.03-0.51,0.04-0.8,0.04
		c-0.92,0-1.55-0.24-1.88-0.71c-0.33-0.47-0.49-1.09-0.49-1.84v-7.79h-1.59v-1.62h1.59V463.94z"/>
	<path d="M373.86,467.22v7.81c0,0.6,0.09,1.09,0.28,1.47c0.34,0.7,0.98,1.05,1.92,1.05c1.34,0,2.25-0.62,2.74-1.85
		c0.26-0.66,0.4-1.56,0.4-2.71v-5.78h1.98v11.77h-1.87l0.02-1.74c-0.25,0.45-0.56,0.82-0.94,1.13c-0.74,0.62-1.64,0.92-2.69,0.92
		c-1.65,0-2.77-0.56-3.36-1.68c-0.32-0.6-0.49-1.4-0.49-2.41v-8H373.86z"/>
	<path d="M384.46,467.22h1.88v2.03c0.15-0.39,0.53-0.88,1.13-1.44s1.29-0.85,2.08-0.85c0.04,0,0.1,0,0.19,0.01
		c0.09,0.01,0.24,0.02,0.45,0.04v2.09c-0.12-0.02-0.22-0.04-0.32-0.04c-0.1-0.01-0.21-0.01-0.32-0.01c-1,0-1.76,0.32-2.3,0.96
		c-0.54,0.64-0.8,1.38-0.8,2.21v6.77h-1.98V467.22z"/>
	<path d="M399.16,467.54c0.78,0.39,1.37,0.9,1.78,1.52c0.39,0.59,0.66,1.29,0.79,2.08c0.12,0.54,0.17,1.41,0.17,2.59h-8.56
		c0.04,1.2,0.32,2.16,0.84,2.88c0.52,0.72,1.33,1.09,2.43,1.09c1.02,0,1.84-0.34,2.45-1.03c0.34-0.4,0.58-0.86,0.73-1.38h1.94
		c-0.05,0.43-0.22,0.91-0.51,1.45c-0.29,0.53-0.61,0.96-0.97,1.3c-0.6,0.59-1.33,0.98-2.21,1.19c-0.47,0.12-1.01,0.18-1.6,0.18
		c-1.46,0-2.69-0.53-3.7-1.6c-1.01-1.06-1.52-2.56-1.52-4.48c0-1.89,0.51-3.42,1.53-4.6c1.02-1.18,2.35-1.77,4-1.77
		C397.58,466.96,398.38,467.15,399.16,467.54z M399.87,472.16c-0.08-0.86-0.26-1.54-0.56-2.05c-0.54-0.95-1.43-1.43-2.69-1.43
		c-0.9,0-1.66,0.33-2.27,0.98c-0.61,0.66-0.93,1.49-0.97,2.5H399.87z"/>
	<path d="M415.87,462.58c-1.15,2.23-1.9,3.88-2.24,4.93c-0.52,1.6-0.78,3.46-0.78,5.56c0,2.12,0.3,4.06,0.89,5.82
		c0.37,1.08,1.09,2.64,2.16,4.68h-1.33c-1.07-1.67-1.73-2.74-1.99-3.2c-0.26-0.46-0.54-1.09-0.83-1.88
		c-0.41-1.08-0.7-2.24-0.86-3.47c-0.08-0.64-0.12-1.25-0.12-1.82c0-2.17,0.34-4.1,1.02-5.79c0.43-1.08,1.33-2.69,2.7-4.83H415.87z"
		/>
	<path d="M418.42,462.85h2.13v7.9l8.07-7.9h3.06l-6.9,6.51l7.04,9.62h-2.86l-5.78-8.11l-2.63,2.48v5.62h-2.13V462.85z"/>
	<path d="M432.49,483.58c1.16-2.27,1.92-3.93,2.25-4.96c0.51-1.58,0.77-3.42,0.77-5.54c0-2.12-0.3-4.05-0.89-5.81
		c-0.37-1.08-1.09-2.64-2.16-4.68h1.33c1.13,1.8,1.81,2.91,2.05,3.33c0.24,0.42,0.5,1,0.78,1.74c0.35,0.92,0.6,1.82,0.75,2.71
		s0.23,1.75,0.23,2.58c0,2.17-0.34,4.1-1.03,5.8c-0.43,1.09-1.33,2.7-2.69,4.82H432.49z"/>
</g>
<g>
	<path d="M119.42,44.9h5.16c1.75,0,3.11,0.63,4.08,1.89c0.86,1.14,1.29,2.59,1.29,4.37c0,1.37-0.25,2.61-0.76,3.72
		c-0.9,1.96-2.44,2.94-4.62,2.94h-5.14V44.9z M124.23,56.32c0.58,0,1.05-0.06,1.43-0.18c0.66-0.23,1.21-0.67,1.63-1.32
		c0.34-0.52,0.58-1.19,0.73-2c0.09-0.49,0.13-0.94,0.13-1.35c0-1.6-0.31-2.84-0.93-3.73s-1.62-1.33-3-1.33h-3.03v9.91H124.23z"/>
	<path d="M137.94,48.66c0.62,0.31,1.1,0.72,1.42,1.22c0.31,0.47,0.52,1.03,0.63,1.66c0.09,0.43,0.14,1.12,0.14,2.07h-6.85
		c0.03,0.96,0.25,1.73,0.67,2.3c0.42,0.58,1.07,0.87,1.94,0.87c0.82,0,1.47-0.27,1.96-0.82c0.27-0.32,0.47-0.69,0.58-1.1H140
		c-0.04,0.35-0.18,0.73-0.41,1.16s-0.49,0.77-0.77,1.04c-0.48,0.47-1.07,0.79-1.77,0.95c-0.38,0.09-0.81,0.14-1.28,0.14
		c-1.16,0-2.15-0.43-2.96-1.28c-0.81-0.85-1.21-2.05-1.21-3.58c0-1.51,0.41-2.74,1.22-3.68c0.81-0.94,1.88-1.42,3.2-1.42
		C136.67,48.19,137.32,48.35,137.94,48.66z M138.51,52.35c-0.06-0.69-0.21-1.23-0.44-1.64c-0.43-0.76-1.15-1.14-2.15-1.14
		c-0.72,0-1.32,0.26-1.81,0.79c-0.49,0.52-0.75,1.19-0.78,2H138.51z"/>
	<path d="M142.14,48.4h1.5v1.34c0.45-0.55,0.92-0.95,1.42-1.19s1.05-0.36,1.66-0.36c1.34,0,2.24,0.47,2.71,1.4
		c0.26,0.51,0.39,1.24,0.39,2.19v6.04h-1.61v-5.93c0-0.57-0.08-1.04-0.25-1.39c-0.28-0.59-0.79-0.88-1.53-0.88
		c-0.38,0-0.68,0.04-0.92,0.11c-0.43,0.13-0.81,0.39-1.14,0.77c-0.26,0.31-0.44,0.63-0.51,0.96s-0.12,0.8-0.12,1.42v4.93h-1.58V48.4
		z"/>
	<path d="M153.09,54.86c0.05,0.53,0.18,0.93,0.4,1.21c0.41,0.51,1.11,0.76,2.12,0.76c0.6,0,1.12-0.13,1.58-0.38
		c0.45-0.26,0.68-0.65,0.68-1.18c0-0.4-0.18-0.71-0.54-0.92c-0.23-0.13-0.69-0.28-1.38-0.45l-1.28-0.32
		c-0.82-0.2-1.42-0.42-1.8-0.67c-0.69-0.43-1.04-1.02-1.04-1.78c0-0.89,0.33-1.61,0.98-2.16c0.65-0.55,1.52-0.83,2.62-0.83
		c1.44,0,2.47,0.42,3.11,1.25c0.4,0.53,0.59,1.1,0.58,1.71h-1.49c-0.03-0.36-0.16-0.68-0.39-0.97c-0.37-0.41-1.02-0.62-1.93-0.62
		c-0.61,0-1.08,0.11-1.39,0.34s-0.47,0.53-0.47,0.9c0,0.41,0.21,0.74,0.62,0.98c0.24,0.15,0.59,0.27,1.06,0.39l1.07,0.25
		c1.16,0.28,1.93,0.54,2.33,0.8c0.62,0.4,0.92,1.04,0.92,1.91c0,0.84-0.32,1.56-0.97,2.17c-0.64,0.61-1.62,0.91-2.94,0.91
		c-1.42,0-2.42-0.32-3.01-0.95c-0.59-0.63-0.91-1.42-0.95-2.36H153.09z"/>
	<path d="M161.15,44.9h1.61v1.79h-1.61V44.9z M161.15,48.44h1.61v9.37h-1.61V48.44z"/>
	<path d="M165.46,45.77h1.6v2.63h1.5v1.29h-1.5v6.14c0,0.33,0.11,0.55,0.33,0.66c0.12,0.06,0.33,0.1,0.62,0.1
		c0.08,0,0.16,0,0.25-0.01s0.19-0.01,0.31-0.03v1.26c-0.18,0.05-0.37,0.09-0.57,0.11s-0.41,0.04-0.64,0.04
		c-0.74,0-1.24-0.19-1.5-0.57c-0.26-0.38-0.4-0.87-0.4-1.47v-6.23h-1.27V48.4h1.27V45.77z"/>
	<path d="M176.03,48.4h1.75c-0.22,0.6-0.72,1.98-1.49,4.13c-0.57,1.62-1.05,2.94-1.44,3.96c-0.91,2.4-1.56,3.86-1.93,4.39
		c-0.38,0.53-1.02,0.79-1.93,0.79c-0.22,0-0.39-0.01-0.51-0.03s-0.27-0.05-0.44-0.1v-1.44c0.27,0.08,0.47,0.12,0.6,0.14
		c0.12,0.02,0.23,0.03,0.32,0.03c0.29,0,0.51-0.05,0.64-0.14c0.14-0.1,0.25-0.21,0.35-0.36c0.03-0.05,0.13-0.29,0.32-0.72
		c0.18-0.43,0.31-0.75,0.4-0.96l-3.48-9.69h1.79l2.52,7.67L176.03,48.4z"/>
	<path d="M187.96,50.59v1.48h-9.17v-1.48H187.96z M187.96,54.36v1.5h-9.17v-1.5H187.96z"/>
	<path d="M190.22,48.9v-1.21c1.14-0.11,1.94-0.3,2.39-0.56c0.45-0.26,0.79-0.88,1.01-1.85h1.25v12.53h-1.69V48.9H190.22z"/>
	<path d="M206.91,47.24c0.56,1.04,0.84,2.46,0.84,4.26c0,1.71-0.25,3.13-0.76,4.25c-0.74,1.61-1.95,2.41-3.62,2.41
		c-1.51,0-2.64-0.66-3.38-1.97c-0.62-1.1-0.92-2.57-0.92-4.41c0-1.43,0.18-2.66,0.55-3.68c0.69-1.91,1.94-2.87,3.75-2.87
		C205.01,45.23,206.19,45.9,206.91,47.24z M205.32,55.62c0.49-0.73,0.73-2.08,0.73-4.06c0-1.43-0.18-2.61-0.53-3.53
		c-0.35-0.92-1.04-1.38-2.05-1.38c-0.93,0-1.62,0.44-2.05,1.31c-0.43,0.88-0.65,2.17-0.65,3.87c0,1.28,0.14,2.31,0.41,3.09
		c0.42,1.19,1.14,1.78,2.17,1.78C204.18,56.71,204.83,56.35,205.32,55.62z"/>
	<path d="M216.92,47.24c0.56,1.04,0.84,2.46,0.84,4.26c0,1.71-0.25,3.13-0.76,4.25c-0.74,1.61-1.95,2.41-3.62,2.41
		c-1.51,0-2.64-0.66-3.38-1.97c-0.62-1.1-0.92-2.57-0.92-4.41c0-1.43,0.18-2.66,0.55-3.68c0.69-1.91,1.94-2.87,3.75-2.87
		C215.02,45.23,216.2,45.9,216.92,47.24z M215.33,55.62c0.49-0.73,0.73-2.08,0.73-4.06c0-1.43-0.18-2.61-0.53-3.53
		c-0.35-0.92-1.04-1.38-2.05-1.38c-0.93,0-1.62,0.44-2.05,1.31c-0.43,0.88-0.65,2.17-0.65,3.87c0,1.28,0.14,2.31,0.41,3.09
		c0.42,1.19,1.14,1.78,2.17,1.78C214.19,56.71,214.84,56.35,215.33,55.62z"/>
	<path d="M229.92,48.78c0.3,0.21,0.6,0.5,0.91,0.9v-1.19h1.46v8.56c0,1.2-0.18,2.14-0.53,2.83c-0.65,1.28-1.89,1.92-3.71,1.92
		c-1.01,0-1.86-0.23-2.55-0.68c-0.69-0.46-1.07-1.17-1.16-2.13h1.61c0.08,0.42,0.23,0.75,0.45,0.98c0.36,0.35,0.92,0.53,1.68,0.53
		c1.21,0,2-0.43,2.37-1.28c0.22-0.5,0.32-1.4,0.31-2.7c-0.31,0.48-0.69,0.84-1.14,1.07c-0.44,0.23-1.03,0.35-1.76,0.35
		c-1.02,0-1.9-0.36-2.67-1.08s-1.14-1.92-1.14-3.59c0-1.58,0.38-2.81,1.15-3.69s1.69-1.33,2.78-1.33
		C228.73,48.23,229.38,48.41,229.92,48.78z M230.12,50.47c-0.48-0.56-1.09-0.84-1.83-0.84c-1.11,0-1.87,0.52-2.27,1.56
		c-0.22,0.56-0.32,1.29-0.32,2.19c0,1.06,0.21,1.87,0.64,2.42c0.43,0.55,1,0.83,1.73,0.83c1.13,0,1.93-0.51,2.39-1.54
		c0.26-0.58,0.38-1.26,0.38-2.03C230.84,51.9,230.6,51.04,230.12,50.47z"/>
	<path d="M234.75,48.4h1.5v1.63c0.12-0.32,0.42-0.7,0.91-1.16c0.48-0.45,1.03-0.68,1.66-0.68c0.03,0,0.08,0,0.15,0.01
		s0.19,0.02,0.36,0.04v1.67c-0.09-0.02-0.18-0.03-0.26-0.04s-0.17-0.01-0.26-0.01c-0.8,0-1.41,0.26-1.84,0.77
		c-0.43,0.51-0.64,1.1-0.64,1.77v5.41h-1.58V48.4z"/>
	<path d="M243.64,44.9h1.34l-4.1,12.91h-1.34L243.64,44.9z"/>
	<path d="M251.92,48.9c0.67,0.52,1.06,1.4,1.2,2.66h-1.54c-0.09-0.58-0.31-1.06-0.64-1.45c-0.33-0.38-0.87-0.58-1.61-0.58
		c-1.01,0-1.73,0.49-2.16,1.47c-0.28,0.64-0.42,1.42-0.42,2.36c0,0.94,0.2,1.74,0.6,2.38c0.4,0.64,1.03,0.97,1.88,0.97
		c0.66,0,1.18-0.2,1.56-0.6s0.65-0.95,0.8-1.64h1.54c-0.18,1.25-0.62,2.16-1.32,2.74c-0.7,0.58-1.6,0.87-2.7,0.87
		c-1.23,0-2.21-0.45-2.94-1.35s-1.1-2.02-1.1-3.37c0-1.65,0.4-2.94,1.2-3.86s1.83-1.38,3.07-1.38
		C250.39,48.13,251.25,48.38,251.92,48.9z"/>
	<path d="M254.7,48.4h1.56v1.34c0.38-0.46,0.71-0.8,1.02-1.01c0.52-0.36,1.11-0.54,1.78-0.54c0.75,0,1.35,0.18,1.81,0.55
		c0.26,0.21,0.49,0.52,0.7,0.93c0.35-0.5,0.76-0.88,1.24-1.12c0.47-0.24,1.01-0.36,1.6-0.36c1.27,0,2.13,0.46,2.58,1.37
		c0.25,0.49,0.37,1.15,0.37,1.99v6.27h-1.64v-6.54c0-0.63-0.16-1.06-0.47-1.29s-0.7-0.35-1.15-0.35c-0.62,0-1.16,0.21-1.6,0.62
		s-0.67,1.11-0.67,2.08v5.48h-1.61v-6.14c0-0.64-0.08-1.1-0.23-1.4c-0.24-0.44-0.69-0.66-1.34-0.66c-0.6,0-1.14,0.23-1.63,0.69
		s-0.73,1.3-0.73,2.51v4.99h-1.58V48.4z"/>
</g>
<g>
	<path d="M269.37,48.18c-0.4-0.49-0.6-1.08-0.6-1.79h0.99c0.04,0.49,0.13,0.84,0.27,1.06c0.25,0.4,0.69,0.59,1.33,0.59
		c0.5,0,0.9-0.13,1.2-0.4s0.45-0.61,0.45-1.03c0-0.52-0.16-0.88-0.48-1.09c-0.32-0.21-0.76-0.31-1.32-0.31c-0.06,0-0.13,0-0.19,0
		c-0.06,0-0.13,0-0.2,0.01V44.4c0.1,0.01,0.18,0.02,0.25,0.02c0.07,0,0.14,0.01,0.22,0.01c0.35,0,0.65-0.06,0.87-0.17
		c0.4-0.2,0.6-0.55,0.6-1.05c0-0.38-0.13-0.66-0.4-0.87c-0.27-0.2-0.58-0.3-0.93-0.3c-0.63,0-1.07,0.21-1.31,0.63
		c-0.13,0.23-0.21,0.56-0.23,0.99h-0.94c0-0.56,0.11-1.04,0.34-1.43c0.39-0.7,1.06-1.05,2.04-1.05c0.77,0,1.36,0.17,1.78,0.51
		c0.42,0.34,0.63,0.84,0.63,1.49c0,0.46-0.12,0.84-0.37,1.13c-0.16,0.18-0.35,0.32-0.6,0.42c0.4,0.11,0.71,0.32,0.93,0.63
		c0.22,0.31,0.33,0.69,0.33,1.14c0,0.72-0.24,1.3-0.71,1.76c-0.47,0.45-1.15,0.68-2.02,0.68C270.42,48.92,269.77,48.67,269.37,48.18
		z"/>
</g>
<g>
	<path d="M284.92,56.36l7.94-9.92h-7.36V44.9h9.62v1.5l-7.99,9.87h7.99v1.54h-10.2V56.36z"/>
	<path d="M305.48,50.59v1.48h-9.17v-1.48H305.48z M305.48,54.36v1.5h-9.17v-1.5H305.48z"/>
	<path d="M306.43,56.36l7.94-9.92h-7.36V44.9h9.62v1.5l-7.99,9.87h7.99v1.54h-10.2V56.36z"/>
	<path d="M324.04,59.99c-2.96,0-5.41-2.42-5.41-5.42c0-2.98,2.42-5.42,5.42-5.42c2.96,0,5.41,2.42,5.41,5.42
		C329.46,57.54,327.05,59.99,324.04,59.99z M328.92,54.56c0-2.68-2.17-4.88-4.88-4.88c-2.67,0-4.86,2.17-4.86,4.88
		c0,2.68,2.17,4.88,4.88,4.88C326.72,59.44,328.92,57.27,328.92,54.56z M324.04,55.59c-0.56,0-1.03-0.47-1.03-1.03
		c0-0.55,0.44-1.03,1.04-1.03c0.56,0,1.03,0.47,1.03,1.03C325.08,55.11,324.64,55.59,324.04,55.59z"/>
</g>
<path class="st1" d="M82.22,364.28c10.35-19.52,17.73-36.64,33.6-52.41c15.35-15.25,32.68-27.6,51.18-38.73
	c34.12-20.53,71.64-35.4,109.21-48.53c70.76-24.74,143.36-38.23,217.66-46.09c40.64-4.3,81.86-11.47,122.95-13.71"/>
<g>
	<path class="st2" d="M437.32,190.83h5.78c1.14,0,2.06,0.32,2.77,0.97c0.7,0.65,1.05,1.56,1.05,2.73c0,1.01-0.31,1.88-0.94,2.63
		c-0.63,0.75-1.59,1.12-2.88,1.12h-4.03v5.46h-1.75V190.83z M444.1,192.61c-0.38-0.18-0.91-0.27-1.58-0.27h-3.46v4.47h3.46
		c0.78,0,1.41-0.17,1.9-0.5c0.48-0.33,0.73-0.92,0.73-1.77C445.15,193.59,444.8,192.95,444.1,192.61z"/>
	<path class="st2" d="M449.32,190.83h5.78c1.14,0,2.06,0.32,2.77,0.97c0.7,0.65,1.05,1.56,1.05,2.73c0,1.01-0.31,1.88-0.94,2.63
		c-0.63,0.75-1.59,1.12-2.88,1.12h-4.03v5.46h-1.75V190.83z M456.11,192.61c-0.38-0.18-0.91-0.27-1.58-0.27h-3.46v4.47h3.46
		c0.78,0,1.41-0.17,1.9-0.5c0.48-0.33,0.73-0.92,0.73-1.77C457.15,193.59,456.81,192.95,456.11,192.61z"/>
	<path class="st2" d="M472.17,194.83c0.67,0.52,1.06,1.4,1.2,2.66h-1.54c-0.09-0.58-0.31-1.06-0.64-1.45
		c-0.33-0.38-0.87-0.58-1.61-0.58c-1.01,0-1.73,0.49-2.16,1.47c-0.28,0.64-0.42,1.42-0.42,2.36c0,0.94,0.2,1.74,0.6,2.38
		c0.4,0.64,1.03,0.97,1.88,0.97c0.66,0,1.18-0.2,1.56-0.6s0.65-0.95,0.8-1.64h1.54c-0.18,1.25-0.62,2.16-1.32,2.74
		c-0.7,0.58-1.6,0.87-2.7,0.87c-1.23,0-2.21-0.45-2.95-1.35s-1.1-2.02-1.1-3.37c0-1.65,0.4-2.94,1.2-3.86s1.83-1.38,3.07-1.38
		C470.64,194.06,471.51,194.32,472.17,194.83z"/>
	<path class="st2" d="M474.95,190.79h1.58v4.82c0.38-0.47,0.71-0.81,1.01-1c0.51-0.33,1.14-0.5,1.91-0.5c1.37,0,2.29,0.48,2.78,1.43
		c0.26,0.52,0.4,1.25,0.4,2.17v6.04H481v-5.93c0-0.69-0.09-1.2-0.26-1.52c-0.29-0.52-0.83-0.77-1.62-0.77
		c-0.66,0-1.25,0.23-1.78,0.68s-0.8,1.3-0.8,2.56v4.99h-1.58V190.79z"/>
	<path class="st2" d="M490.01,198.05c0.36-0.05,0.61-0.2,0.73-0.46c0.07-0.14,0.11-0.34,0.11-0.61c0-0.54-0.19-0.93-0.57-1.18
		s-0.93-0.37-1.64-0.37c-0.82,0-1.41,0.22-1.75,0.67c-0.19,0.25-0.32,0.62-0.38,1.1h-1.48c0.03-1.16,0.4-1.97,1.13-2.43
		c0.72-0.46,1.56-0.68,2.52-0.68c1.11,0,2,0.21,2.7,0.63c0.68,0.42,1.03,1.08,1.03,1.97v5.42c0,0.16,0.03,0.3,0.1,0.4
		s0.21,0.15,0.43,0.15c0.07,0,0.15,0,0.24-0.01c0.09-0.01,0.18-0.02,0.28-0.04v1.17c-0.25,0.07-0.43,0.11-0.56,0.13
		s-0.3,0.03-0.53,0.03c-0.54,0-0.94-0.19-1.19-0.58c-0.13-0.21-0.22-0.5-0.27-0.87c-0.32,0.42-0.79,0.79-1.39,1.1
		s-1.27,0.47-1.99,0.47c-0.87,0-1.59-0.26-2.14-0.79c-0.55-0.53-0.83-1.19-0.83-1.99c0-0.87,0.27-1.55,0.82-2.03
		c0.54-0.48,1.26-0.78,2.14-0.89L490.01,198.05z M486.68,202.32c0.33,0.26,0.73,0.39,1.19,0.39c0.56,0,1.1-0.13,1.62-0.39
		c0.88-0.43,1.32-1.13,1.32-2.1v-1.27c-0.19,0.12-0.44,0.23-0.75,0.31c-0.3,0.08-0.6,0.14-0.89,0.18l-0.96,0.12
		c-0.57,0.08-1,0.2-1.29,0.36c-0.49,0.27-0.73,0.71-0.73,1.32C486.18,201.7,486.34,202.06,486.68,202.32z"/>
	<path class="st2" d="M494.97,190.83h1.61v1.79h-1.61V190.83z M494.97,194.38h1.61v9.37h-1.61V194.38z"/>
	<path class="st2" d="M498.97,194.33h1.5v1.34c0.45-0.55,0.92-0.95,1.42-1.19s1.05-0.36,1.66-0.36c1.34,0,2.24,0.47,2.71,1.4
		c0.26,0.51,0.39,1.24,0.39,2.19v6.04h-1.61v-5.93c0-0.57-0.09-1.04-0.26-1.39c-0.28-0.59-0.79-0.88-1.53-0.88
		c-0.38,0-0.68,0.04-0.92,0.11c-0.43,0.13-0.81,0.39-1.14,0.77c-0.26,0.31-0.44,0.63-0.51,0.96s-0.12,0.8-0.12,1.42v4.93h-1.58
		V194.33z"/>
	<path class="st2" d="M509.92,200.79c0.05,0.53,0.18,0.93,0.4,1.21c0.41,0.51,1.11,0.76,2.12,0.76c0.6,0,1.12-0.13,1.58-0.38
		c0.45-0.26,0.68-0.65,0.68-1.18c0-0.4-0.18-0.71-0.54-0.92c-0.23-0.13-0.69-0.28-1.38-0.45l-1.28-0.32
		c-0.82-0.2-1.42-0.42-1.8-0.67c-0.69-0.43-1.04-1.02-1.04-1.78c0-0.89,0.33-1.61,0.98-2.16c0.65-0.55,1.52-0.83,2.62-0.83
		c1.44,0,2.47,0.42,3.11,1.25c0.4,0.53,0.59,1.1,0.58,1.71h-1.49c-0.03-0.36-0.16-0.68-0.39-0.97c-0.37-0.41-1.02-0.62-1.94-0.62
		c-0.61,0-1.07,0.11-1.39,0.34s-0.47,0.53-0.47,0.9c0,0.41,0.21,0.74,0.62,0.98c0.24,0.15,0.59,0.27,1.06,0.39l1.07,0.25
		c1.16,0.28,1.93,0.54,2.33,0.8c0.62,0.4,0.92,1.04,0.92,1.91c0,0.84-0.32,1.56-0.97,2.17s-1.62,0.91-2.94,0.91
		c-1.42,0-2.42-0.32-3.01-0.95c-0.59-0.63-0.91-1.42-0.95-2.36H509.92z"/>
</g>
<path class="st3" d="M188.26,411.8c26.57-65.32,60.45-127.86,102.09-184.82c36.83-50.38,80.02-102.39,129.43-140.07
	c14.72-11.22,28.53-23.05,43.53-34.17c16.18-11.99,33.99-22.01,49.75-34.54"/>
<g>
	<path class="st4" d="M449.68,77.58c0.89,0.86,1.39,1.84,1.49,2.94h-1.71c-0.19-0.83-0.57-1.49-1.14-1.98
		c-0.57-0.49-1.36-0.73-2.39-0.73c-1.25,0-2.26,0.45-3.03,1.34c-0.77,0.89-1.15,2.26-1.15,4.11c0,1.51,0.35,2.74,1.04,3.68
		c0.69,0.94,1.73,1.41,3.1,1.41c1.27,0,2.23-0.5,2.89-1.49c0.35-0.52,0.61-1.21,0.79-2.06h1.71c-0.15,1.36-0.65,2.5-1.49,3.42
		c-1.01,1.11-2.38,1.66-4.1,1.66c-1.48,0-2.73-0.45-3.74-1.36c-1.33-1.2-1.99-3.06-1.99-5.57c0-1.91,0.5-3.47,1.49-4.69
		c1.08-1.32,2.56-1.99,4.46-1.99C447.54,76.28,448.79,76.71,449.68,77.58z"/>
	<path class="st4" d="M453.55,76.64h2.06l6.44,10.43V76.64h1.67v12.91h-1.96l-6.53-10.42v10.42h-1.67V76.64z"/>
	<path class="st4" d="M477.18,78.48c0.86,1.14,1.28,2.6,1.28,4.39c0,1.93-0.49,3.53-1.47,4.81c-1.15,1.5-2.79,2.25-4.91,2.25
		c-1.99,0-3.55-0.66-4.68-1.97c-1.01-1.27-1.52-2.87-1.52-4.8c0-1.75,0.43-3.24,1.3-4.48c1.11-1.59,2.76-2.39,4.94-2.39
		C474.4,76.28,476.09,77.02,477.18,78.48z M475.64,86.71c0.69-1.11,1.03-2.38,1.03-3.81c0-1.52-0.4-2.74-1.19-3.67
		c-0.79-0.93-1.88-1.39-3.26-1.39c-1.34,0-2.43,0.46-3.27,1.38s-1.27,2.27-1.27,4.06c0,1.43,0.36,2.64,1.08,3.62
		c0.72,0.98,1.9,1.47,3.52,1.47C473.84,88.37,474.95,87.82,475.64,86.71z"/>
	<path class="st4" d="M491.56,80.63c0.67,0.52,1.07,1.4,1.2,2.66h-1.54c-0.09-0.58-0.31-1.06-0.64-1.45
		c-0.33-0.38-0.87-0.58-1.61-0.58c-1.01,0-1.73,0.49-2.16,1.47c-0.28,0.64-0.42,1.42-0.42,2.36c0,0.94,0.2,1.74,0.6,2.38
		c0.4,0.64,1.03,0.97,1.88,0.97c0.66,0,1.18-0.2,1.56-0.6c0.38-0.4,0.65-0.95,0.79-1.64h1.54c-0.18,1.25-0.62,2.16-1.32,2.74
		c-0.7,0.58-1.6,0.87-2.7,0.87c-1.23,0-2.21-0.45-2.94-1.35s-1.1-2.02-1.1-3.37c0-1.65,0.4-2.94,1.2-3.86s1.83-1.38,3.07-1.38
		C490.03,79.86,490.89,80.12,491.56,80.63z"/>
	<path class="st4" d="M500.22,80.13h1.75c-0.22,0.6-0.72,1.98-1.49,4.13c-0.57,1.62-1.05,2.94-1.44,3.96
		c-0.91,2.4-1.56,3.86-1.93,4.39c-0.38,0.53-1.02,0.79-1.93,0.79c-0.22,0-0.39-0.01-0.51-0.03s-0.27-0.05-0.44-0.1v-1.44
		c0.28,0.08,0.47,0.12,0.6,0.14c0.12,0.02,0.23,0.03,0.33,0.03c0.29,0,0.51-0.05,0.64-0.14c0.14-0.1,0.25-0.21,0.35-0.36
		c0.03-0.05,0.13-0.29,0.32-0.72c0.18-0.43,0.31-0.75,0.39-0.96l-3.48-9.69h1.79l2.52,7.67L500.22,80.13z"/>
	<path class="st4" d="M509.56,80.63c0.67,0.52,1.07,1.4,1.2,2.66h-1.54c-0.09-0.58-0.31-1.06-0.64-1.45
		c-0.33-0.38-0.87-0.58-1.61-0.58c-1.01,0-1.73,0.49-2.16,1.47c-0.28,0.64-0.42,1.42-0.42,2.36c0,0.94,0.2,1.74,0.6,2.38
		c0.4,0.64,1.03,0.97,1.88,0.97c0.66,0,1.18-0.2,1.56-0.6c0.38-0.4,0.65-0.95,0.79-1.64h1.54c-0.18,1.25-0.62,2.16-1.32,2.74
		c-0.7,0.58-1.6,0.87-2.7,0.87c-1.23,0-2.21-0.45-2.94-1.35s-1.1-2.02-1.1-3.37c0-1.65,0.4-2.94,1.2-3.86s1.83-1.38,3.07-1.38
		C508.03,79.86,508.89,80.12,509.56,80.63z"/>
	<path class="st4" d="M512.38,76.64h1.58v12.91h-1.58V76.64z"/>
	<path class="st4" d="M522.15,80.39c0.62,0.31,1.1,0.72,1.42,1.22c0.31,0.47,0.52,1.03,0.63,1.66c0.09,0.43,0.14,1.12,0.14,2.07
		h-6.85c0.03,0.96,0.25,1.73,0.67,2.3c0.42,0.58,1.07,0.87,1.94,0.87c0.82,0,1.47-0.27,1.96-0.82c0.27-0.32,0.47-0.69,0.58-1.1h1.56
		c-0.04,0.35-0.18,0.73-0.41,1.16c-0.23,0.42-0.49,0.77-0.78,1.04c-0.48,0.47-1.07,0.79-1.77,0.95c-0.38,0.09-0.81,0.14-1.28,0.14
		c-1.16,0-2.15-0.43-2.96-1.28c-0.81-0.85-1.21-2.05-1.21-3.58c0-1.51,0.41-2.74,1.22-3.68c0.81-0.94,1.88-1.42,3.2-1.42
		C520.89,79.92,521.53,80.08,522.15,80.39z M522.72,84.09c-0.06-0.69-0.21-1.23-0.44-1.64c-0.43-0.76-1.15-1.14-2.15-1.14
		c-0.72,0-1.32,0.26-1.81,0.79s-0.75,1.19-0.78,2H522.72z"/>
	<path class="st4" d="M527.29,86.59c0.05,0.53,0.18,0.93,0.4,1.21c0.41,0.51,1.11,0.76,2.12,0.76c0.6,0,1.12-0.13,1.58-0.38
		c0.46-0.26,0.68-0.65,0.68-1.18c0-0.4-0.18-0.71-0.54-0.92c-0.23-0.13-0.69-0.28-1.38-0.45l-1.28-0.32
		c-0.82-0.2-1.42-0.42-1.8-0.67c-0.69-0.43-1.04-1.02-1.04-1.78c0-0.89,0.33-1.61,0.98-2.16s1.52-0.83,2.62-0.83
		c1.44,0,2.47,0.42,3.11,1.25c0.4,0.53,0.59,1.1,0.58,1.71h-1.49c-0.03-0.36-0.16-0.68-0.39-0.97c-0.37-0.41-1.02-0.62-1.93-0.62
		c-0.61,0-1.08,0.11-1.39,0.34c-0.32,0.23-0.47,0.53-0.47,0.9c0,0.41,0.21,0.74,0.62,0.98c0.24,0.15,0.59,0.27,1.06,0.39l1.07,0.25
		c1.16,0.28,1.93,0.54,2.33,0.8c0.62,0.4,0.92,1.04,0.92,1.91c0,0.84-0.32,1.56-0.96,2.17c-0.64,0.61-1.62,0.91-2.94,0.91
		c-1.42,0-2.42-0.32-3.01-0.95c-0.59-0.63-0.91-1.42-0.95-2.36H527.29z"/>
</g>
<line class="st5" x1="234.96" y1="165.8" x2="234.96" y2="411.8"/>
<g>
	<path class="st6" d="M214.12,167.08v1.54h-4.35v11.37h-1.77v-11.37h-4.35v-1.54H214.12z"/>
	<path class="st6" d="M221.4,182.17c-2.96,0-5.41-2.42-5.41-5.42c0-2.98,2.42-5.42,5.42-5.42c2.96,0,5.41,2.42,5.41,5.42
		C226.82,179.72,224.4,182.17,221.4,182.17z M226.27,176.74c0-2.68-2.17-4.88-4.88-4.88c-2.67,0-4.86,2.17-4.86,4.88
		c0,2.68,2.17,4.88,4.88,4.88C224.07,181.62,226.27,179.45,226.27,176.74z M221.4,177.77c-0.56,0-1.03-0.47-1.03-1.03
		c0-0.55,0.44-1.03,1.04-1.03c0.56,0,1.03,0.47,1.03,1.03C222.44,177.29,221.99,177.77,221.4,177.77z"/>
</g>
</svg>
